<?xml version="1.0" encoding="utf-8" ?><svg xmlns="http://www.w3.org/2000/svg" xmlns:xlink="http://www.w3.org/1999/xlink" width="1472" height="1902" viewBox="0 0 1472 1902"><path d="M210.883 48.6427C231.501 46.1054 226.671 53.434 230.781 65.2732C243.095 100.742 268 132.794 293.324 160.051C322.605 157.146 351.53 188.984 347.915 217.756C346.607 228.173 336.896 249.827 328.226 255.711C299.216 275.398 255.078 273.452 221.671 269.049C202.999 266.262 184.68 261.484 167.025 254.796C133.199 241.945 92.7296 216.534 77.5364 182.735C85.4098 154.092 92.5635 138.258 110.863 114.815C134.657 84.3343 171.52 53.5853 210.883 48.6427Z"/><path fill="#1B1A1A" d="M221.409 56.1453C222.003 56.1387 222.468 56.5944 223.15 57.0047C229.025 97.3308 264.711 144.182 293.234 172.308C302.185 181.96 314.719 189.982 322.56 200.514C333.447 215.275 336.569 239.64 317.991 250.195C288.22 267.111 234.533 259.83 202.661 253.492C157.572 244.246 108.026 219.415 85.5487 177.545C102.5 125.718 165.148 61.4969 221.409 56.1453Z"/><path d="M280.708 190.713C292.888 189.058 304.416 192.92 311.431 203.151L310.807 202.925C295.396 197.379 277.447 194.462 262.689 202.589C237.578 216.416 230.315 240.716 263.228 251.157C272.057 253.254 276.962 253.204 286.018 254.018C214.265 266.854 222.284 197.659 280.708 190.713Z"/><path fill="#FEF12B" d="M299.263 166.217C319.427 170.795 331.096 182.883 338.975 201.394L335.09 206.225C324.044 185.107 317.341 182.021 299.263 166.217Z"/><path fill="#1B1A1A" d="M338.975 201.394C339.33 207.971 340.859 212.188 340.989 220.227C339.085 215.579 337.19 210.774 335.09 206.225L338.975 201.394Z"/><path d="M469.417 141.285C495.958 117.607 522.19 93.5834 548.104 69.2212C553.911 63.7928 590.523 28.3244 596.411 25.7034C632.55 9.61461 681.303 6.71558 720.437 3.98848C732.153 3.17203 743.906 5.26174 754.79 1.43009C756.698 0.758699 761.894 5.21848 762.93 6.74177C778.807 28.1556 793.197 57.8976 803.908 82.0179C843.793 171.832 876.556 258.628 885.489 357.318C901.355 365.586 927.904 418.299 936.145 435.926C1020.95 468.294 1094.55 511.139 1170.73 560.143C1194.2 575.239 1227.33 595.539 1248.82 612.92C1255.33 607.921 1299.42 582.896 1305.77 583.179C1318.03 588.428 1320.27 623.134 1320.87 635.313C1330 635.065 1354.78 638.078 1365.08 639.52C1388.83 642.849 1422.29 644.612 1445.04 649.424C1454.48 671.99 1450.79 722.881 1447.54 747.936C1454.18 753.889 1466.75 763.925 1470.05 771.341C1469.74 776.272 1457.78 810.079 1454.23 812.271C1445.92 817.4 1427.55 786.783 1424.26 779.968C1361.58 773.801 1311.4 777.067 1249.71 793.416C1287.52 858.829 1331.54 905.25 1382.39 960.098C1411.15 991.119 1432.37 1013.49 1463.75 1042.13C1464.45 1053.37 1464.33 1062.22 1461.83 1073.6C1454.57 1106.61 1424.4 1174.12 1404 1198.99C1380.12 1228.08 1312.59 1236.25 1282.52 1267.18L1310.4 1336.85C1315.62 1349.95 1322.36 1363.87 1325.36 1377.65C1347.69 1480.07 1329.47 1623.16 1315.49 1727.47C1308.1 1785.82 1299.47 1844.01 1289.6 1902L1272.95 1902L1265.01 1902L909.698 1902L889.328 1902L875.167 1902C864.224 1892.53 853.246 1883.04 842.896 1872.92C832.873 1863.12 794.045 1822.19 793.405 1809.9C793.127 1804.55 796.047 1799.47 799.665 1795.75C821.651 1773.15 854.853 1752.26 880.664 1733.52C907.578 1713.99 934.167 1692.92 962.308 1675.24C968.822 1671.15 975.472 1667.39 982.776 1664.88C988.745 1648.06 991.119 1631.73 991.857 1613.98C994.058 1560.68 989.757 1506.75 993.297 1453.52C993.788 1446.14 995.743 1416.8 998.628 1412.16C1010.08 1393.76 1026.18 1367.46 1037.8 1349.5C1012.96 1369.43 985.029 1384.03 957.044 1398.99C915.789 1370.34 897.039 1350.09 867.12 1308.76C857.886 1333.38 848.112 1368.39 843.452 1393.72C820.829 1367.78 804.311 1345.51 790.141 1313.6C793.421 1294.35 796.566 1276.38 801.261 1257.37C790.341 1252.62 751.091 1238.72 745.378 1225.18C742.103 1217.42 746.183 1201.51 746.691 1192.01C747.557 1175.84 749.66 1158.98 749.74 1142.58C741.384 1138.72 729.238 1134.97 722.474 1130.21C724.972 1113.33 730.873 1088.96 731.119 1073.22C702.096 1039.17 674.482 1003.95 648.348 967.642C643.176 979.967 625.145 1025.11 613.154 1029.89C597.111 1036.29 525.572 1015.79 506.742 1009.87C492.994 1005.55 478.805 999.554 464.876 996.299C450.49 992.937 376.035 1008.38 356.611 1010.76C326.078 1014.5 295.699 1017.33 264.899 1016.83C256.762 1016.7 241.943 1017.12 234.629 1013.97C231.84 1012.77 231.154 1010.87 230.279 1008.13C221.943 982.019 215.978 953.546 216.131 926.056C200.745 926.767 158.62 925.997 144.665 922.222C135.507 907.863 129.906 888.914 139.637 873.357C118.434 867.392 97.5521 860.612 76.3214 854.537C58.1074 849.325 36.1622 845.605 18.9603 837.971C-6.05638 826.868 -4.7446 808.466 19.578 796.683C49.3911 798.715 100.799 818.956 129.722 829.643C131.577 812.494 138.002 762.516 147.953 749.7C124.356 734.779 41.4948 687.488 35.6189 664.25C34.2852 658.976 36.0382 653.496 38.8899 649.032C42.6826 643.094 52.4809 634.542 59.6016 633.347C63.6753 632.664 67.1424 635.04 70.1671 637.48C79.6293 645.112 87.6839 654.237 97.3921 661.695C124.152 682.252 153.38 700.743 178.304 723.553C181.337 718.083 186.056 709.983 188.705 704.9C199.76 683.684 206.421 681.377 223.654 699.257C228.981 704.784 234.931 711.065 240.006 717.549C232.992 693.569 210.97 609.726 221.862 588.673C224.446 583.679 228.75 580.027 234.22 578.596C242.431 576.449 250.308 579.386 257.634 582.845C262.058 619.164 275.693 676.892 273.638 711.875C287.688 717.545 301.078 722.983 314.729 729.671C329.462 725.225 338.671 722.813 354.266 723.789C361.801 729.053 370.219 736.105 377.674 740.754C404.127 757.25 430.639 773.191 456.888 790.068C445.315 755.008 449.452 753.875 452.737 720.71C463.497 707.223 491.722 688.397 507.766 681.771C512.339 665.978 515.814 659.202 527.218 646.497C511.416 651.446 503.032 647.148 487.232 645.046C476.682 643.642 465.829 641.903 455.211 641.112C424.261 615.367 369.96 562.427 344.073 528.165C339.653 522.314 326.932 473.304 324.556 463.08C342.682 416.776 355.781 385.789 380.82 341.973C377.494 342.699 345.179 348.922 344.221 349.606C326.543 362.214 310.326 379.202 291.813 390.833C284.853 391.304 274.31 391.676 269.369 386.077C246.199 359.824 304.785 326.332 321.582 316.747C304.68 306.855 298 292.552 297.952 273.471C333.895 272.749 343.539 260.241 371.743 250.678C370.934 246.365 369.805 241.107 369.451 236.823C374.165 231.762 376.973 229.072 382.266 224.625C381.049 201.667 379.771 178.998 377.301 156.113C375.833 142.514 418.913 143.476 427.186 143.193C441.267 142.647 455.344 142.011 469.417 141.285ZM660.039 394.274C661.058 384.799 661.986 374.048 663.382 364.721C672.605 353.87 682.596 343.801 691.943 332.947C691.196 289.917 689.157 255.85 685.109 213.131C680.347 212.735 675.225 212.425 670.547 211.653C665.981 227.925 634.607 332.699 626.856 337.584C623.259 339.85 618.004 340.364 613.873 341.073C624.635 353.656 639.128 369.366 649.119 382.006L660.039 394.274ZM37.3291 834.408C54.8367 831.614 139.336 857.697 158.083 864.638C165.87 862.079 174.728 859.964 182.719 857.872C166.834 850.52 141.427 844.229 124.148 838.356C97.5757 829.324 71.1241 820.301 44.1599 812.518C40.1893 820.771 38.8854 825.406 37.3291 834.408ZM931.646 994.277C921.435 1012.16 915.08 1023.35 913.505 1044.31C923.069 1046.14 930.859 1048.57 940.181 1051.36C943.635 1052.49 949.844 1054.36 952.913 1055.74C947.437 1039.49 943.716 1023.21 938.746 1006.82C936.506 999.439 933.592 1000.63 931.646 994.277ZM542.769 225.548C525.547 227.335 508.314 229.817 491.136 231.492C488.561 237.477 486.461 241.042 487.813 247.549C506.864 243.868 518.289 244.871 536.613 242.773C538.075 234.982 538.602 232.514 542.769 225.548ZM85.8153 661.854C88.6706 668.594 97.4999 676.183 103.387 680.761C137.622 707.384 170.884 739.509 206.047 764.679L207.667 762.412C206.48 757.726 97.8439 668.181 87.7374 661.431L85.8153 661.854Z"/><defs><linearGradient id="gradient_0" gradientUnits="userSpaceOnUse" x1="1363.2126" y1="1316.8215" x2="764.7547" y2="1741.9496"><stop offset="0" stop-color="#FFD500"/><stop offset="1" stop-color="#FFF800"/></linearGradient></defs><path fill="url(#gradient_0)" d="M1180.1 1065.17L1186.54 1058.94L1122.37 1197.59C1119.76 1202.27 1109.42 1224.1 1107.26 1226.1C1098.71 1236.99 1079.23 1270.21 1071.43 1282.8C1089.15 1280.03 1117.92 1280.62 1136.05 1280.47C1146 1280.39 1166.06 1279.99 1175.65 1280.66C1171.68 1290.27 1156.11 1317.59 1155.71 1323.53C1157.05 1327.08 1156.16 1325.82 1159.09 1328.27C1168.56 1329.54 1171.36 1312.5 1174.28 1305.72C1177.91 1297.3 1181.58 1288.91 1185.28 1280.51C1204.83 1229.08 1206.98 1169.5 1207.56 1114.87C1207.49 1108.07 1207.47 1101.26 1207.52 1094.46C1228.84 1161.75 1252.46 1228.29 1278.33 1293.97C1285.68 1313.12 1293.14 1332.22 1300.71 1351.28C1315.03 1386.68 1317.98 1393.85 1319.45 1433.7C1323.75 1550.41 1307.44 1666.56 1291.45 1781.89C1286.04 1820.59 1280.4 1864.11 1272.95 1902L1265.01 1902L909.698 1902L889.328 1902C868.196 1883.6 847.088 1862.91 831.974 1839.17C826.07 1829.89 821.064 1817.8 814.702 1809.15L814.056 1808.28C849.427 1778.87 884.946 1753.66 921.309 1725.75C946.792 1706.18 972.598 1683.63 997.303 1662.87C1006.93 1628.81 1005.54 1596.28 1005.61 1560.85C1005.7 1514.18 1002.42 1464.4 1010.31 1418.19C1013.05 1402.1 1061.03 1340.99 1057.31 1327.12C1035.07 1244.2 996.682 1165.97 969.575 1084.61C969.154 1083.35 970.587 1077.79 970.949 1076.3C974.707 1079.75 977.676 1090.68 979.285 1095.87L981.394 1101.24C985.053 1109.6 989.94 1124.29 993.269 1133.25C1000.57 1152.94 1008.05 1172.56 1015.72 1192.11C1028.65 1180.56 1041.25 1168.64 1053.49 1156.35C1061.35 1127.21 1068.64 1100.53 1077.83 1071.82L1089.85 1066.72C1084.06 1085.84 1080.12 1106.25 1075.47 1125.73C1072.45 1138.39 1070.31 1151.3 1065.31 1163.45L1067.6 1164.57C1072.75 1163.09 1092.81 1140.46 1098.83 1134.95C1122.9 1112.91 1153.75 1084.01 1180.1 1065.17Z"/><path fill="#FEA600" d="M831.142 1820.26C852.456 1817.7 880.476 1818.34 901.887 1818.23C977.54 1817.85 1053.23 1827.26 1128.41 1834.66C1176.37 1839.38 1226.63 1845.83 1274.77 1844.48C1271.94 1862.5 1268.87 1884.25 1265.01 1902L909.698 1902C881.546 1877.83 850.303 1852.38 831.142 1820.26Z"/><path fill="#FEA600" d="M1065.31 1163.45L1067.6 1164.57C1072.75 1163.09 1092.81 1140.46 1098.83 1134.95C1122.9 1112.91 1153.75 1084.01 1180.1 1065.17C1176.18 1076.07 1156.65 1107.64 1150 1118.92C1118.33 1172.64 1082.74 1223.93 1048.76 1276.09C1042.04 1256.68 1029.92 1222.08 1020.94 1203.71C1035.34 1190.3 1051.41 1176.95 1065.31 1163.45Z"/><path fill="#FEA600" d="M1207.56 1114.87C1210.31 1128.04 1220.27 1156.01 1225.03 1169.7C1237.84 1206.47 1251.21 1246.61 1266.06 1282.53C1239.16 1280.85 1212.22 1280.18 1185.28 1280.51C1204.83 1229.08 1206.98 1169.5 1207.56 1114.87Z"/><path fill="#FEA600" d="M1059.98 1348.14C1062.68 1350.33 1103.22 1443.36 1109.21 1455.38C1118.04 1455.26 1127.63 1455.8 1136.49 1456.38C1193.81 1460.15 1251.13 1460.72 1308.47 1462.78C1306.52 1487.33 1305.34 1519.05 1304.53 1543.86L1238.27 1555.31L1101.8 1578.58C1083.64 1560.45 1037.05 1529.04 1014.42 1514.11C1014.82 1491.28 1015.11 1425.31 1022.8 1407.35C1025.89 1400.15 1053.1 1360.25 1059.98 1348.14Z"/><path fill="#FEA600" d="M1300.65 1556.81L1302.55 1556.61L1303.63 1557.82C1301.23 1589.95 1299.99 1626.5 1296.19 1658.11C1241.25 1669.07 1182.89 1679.42 1127.75 1689.17C1105.59 1692.89 1083.48 1696.94 1061.44 1701.31C1052.28 1703.13 1041.85 1704.72 1033.03 1707.31L1014.62 1692.34C1008.41 1687.16 1002.09 1682.12 995.647 1677.22C1007.66 1663.87 1009.23 1628.7 1011.48 1609.81C1020.27 1608.99 1034.37 1606.16 1043.35 1604.64L1101.98 1594.53C1168.41 1583.07 1234.64 1570.5 1300.65 1556.81Z"/><path fill="#FEA600" d="M1145.58 1722.06C1151.87 1720.97 1180.08 1731.46 1188.93 1734.16C1221.07 1743.85 1253.64 1751.99 1286.56 1758.55L1278.17 1823.3C1260.04 1820.51 1241.93 1817.63 1223.83 1814.65C1212.29 1812.58 1168.79 1806.91 1161.15 1802.84C1132.37 1787.53 1096.39 1758.57 1070.84 1737.73C1095.72 1732.37 1120.64 1727.14 1145.58 1722.06Z"/><path d="M986.509 1688.64C990.15 1689.81 1020.06 1715.38 1026.96 1720.18C1062.22 1744.76 1097.79 1769.23 1132.65 1794.35C1141.87 1801 1167.54 1818.97 1174.12 1826.25L1173.57 1827.32C1168.29 1826.4 1150.82 1825.6 1142.67 1824.46C1089.69 1816.99 1038.92 1810.09 986.293 1799.86C986.314 1764.1 984.799 1723.82 986.509 1688.64Z"/><path fill="#FEA600" d="M990.601 1697.06C1023.83 1727.55 1065.47 1751.48 1101.61 1778.42C1107.97 1783.15 1126.95 1795.29 1131.34 1799.42C1140.92 1805.58 1151.68 1813.51 1161.23 1820.1C1145.82 1818.77 1129.02 1815.36 1113.56 1813.43C1072.18 1808.29 1033 1801.03 992.309 1791.99C991.837 1786.13 991.981 1778.52 991.928 1772.51C992.053 1749.92 991.881 1719.62 990.601 1697.06Z"/><path fill="#FEF12B" d="M991.928 1772.51C1031.08 1780.22 1069.67 1787.5 1108.25 1797.79C1115.91 1799.83 1123.49 1802.66 1131.3 1803.91C1132.73 1800.48 1129.6 1803.47 1131.34 1799.42C1140.92 1805.58 1151.68 1813.51 1161.23 1820.1C1145.82 1818.77 1129.02 1815.36 1113.56 1813.43C1072.18 1808.29 1033 1801.03 992.309 1791.99C991.837 1786.13 991.981 1778.52 991.928 1772.51Z"/><path d="M1066.83 1333.96C1070.72 1335.56 1076.78 1351.21 1079.07 1356.02C1084.34 1366.82 1089.74 1377.56 1095.29 1388.21C1140.47 1407.19 1185.67 1415.2 1233.27 1425.3C1242.57 1427.28 1294.42 1437.42 1297.2 1443.13C1296.46 1445.95 1295.63 1446.24 1293.23 1448.2C1267.43 1455.51 1200.08 1454.36 1171.2 1452.2C1159.3 1451.3 1138.29 1447.24 1125.05 1445.79C1123.79 1444.19 1122.58 1442.55 1121.43 1440.87C1111.54 1426.31 1064.73 1344.47 1066.83 1333.96Z"/><path fill="#FEA600" d="M1098.29 1393.43C1136.08 1414.29 1195.26 1422.12 1237.41 1431.73C1248.6 1434.29 1263.79 1436.23 1274.35 1439.62C1278.84 1440.07 1283.22 1441.35 1287.61 1442.45C1249.91 1446.59 1212.85 1450.44 1174.71 1448.28C1159.63 1447.42 1142.4 1444 1126.97 1442.07C1124.17 1438.28 1121.58 1433.64 1119.16 1429.53C1112.4 1417.93 1104.59 1405.17 1098.29 1393.43Z"/><path fill="#FEF12B" d="M1119.16 1429.53C1126.79 1428.54 1151.13 1431.75 1160.1 1432.52C1184.29 1434.37 1208.49 1436.07 1232.71 1437.61C1244.03 1438.32 1263.32 1439.98 1274.35 1439.62C1278.84 1440.07 1283.22 1441.35 1287.61 1442.45C1249.91 1446.59 1212.85 1450.44 1174.71 1448.28C1159.63 1447.42 1142.4 1444 1126.97 1442.07C1124.17 1438.28 1121.58 1433.64 1119.16 1429.53Z"/><path d="M1289.09 1676.68L1290.32 1677.36C1291.62 1687.17 1277.14 1734.67 1271.9 1742.2C1266.11 1744.79 1189.22 1722.5 1176.89 1719.03C1169.78 1717.45 1155.09 1712.52 1149.45 1708.63C1147.92 1703.64 1159.58 1699.44 1163.37 1698.59C1204.45 1689.29 1248.24 1686.96 1289.09 1676.68Z"/><path fill="#FEA600" d="M1285.94 1681.79C1284.83 1685.63 1283.89 1689.62 1282.91 1693.51C1278.59 1707.6 1272.56 1725.19 1268.79 1739.07C1242.65 1732.68 1205.71 1723.34 1180.08 1715.25C1172.36 1713.81 1164.2 1710.6 1156.89 1707.72C1195.12 1695.89 1244.48 1696.47 1285.94 1681.79Z"/><path fill="#FEF12B" d="M1285.94 1681.79C1284.83 1685.63 1283.89 1689.62 1282.91 1693.51L1180.08 1715.25C1172.36 1713.81 1164.2 1710.6 1156.89 1707.72C1195.12 1695.89 1244.48 1696.47 1285.94 1681.79Z"/><path d="M1259.36 1309.72C1267.76 1312.69 1276.74 1343.69 1274.05 1350.63C1272.16 1351.92 1271.09 1352.32 1268.63 1352C1234.75 1347.61 1201.23 1348.79 1167.14 1348.07C1158.41 1347.82 1153.27 1347.36 1144.66 1346.23C1174.35 1334.18 1227.8 1317.63 1259.36 1309.72Z"/><path fill="#FEA600" d="M1167.7 1343.89C1196.12 1332.97 1228.63 1324.72 1258.58 1313.23L1259.02 1314.01C1262.54 1320.34 1264.47 1326.11 1266.98 1332.85C1268.3 1337.83 1269.72 1342.68 1270.4 1347.79C1260.93 1346.48 1233.25 1343.99 1223.77 1344.59C1206.67 1343.51 1184.83 1343.65 1167.7 1343.89Z"/><path fill="#FEF12B" d="M1223.77 1344.59L1219.64 1343.4C1221.89 1340.64 1260.67 1333.99 1266.98 1332.85C1268.3 1337.83 1269.72 1342.68 1270.4 1347.79C1260.93 1346.48 1233.25 1343.99 1223.77 1344.59Z"/><path fill="#FEA600" d="M1123.91 1198.15C1147.91 1150.61 1174.64 1101.18 1195.07 1051.99C1202 1075.23 1200.39 1091.94 1199.97 1116.13C1199.05 1169.54 1196.01 1230.82 1175.65 1280.66C1166.06 1279.99 1146 1280.39 1136.05 1280.47C1117.92 1280.62 1089.15 1280.03 1071.43 1282.8C1079.23 1270.21 1098.71 1236.99 1107.26 1226.1C1109.42 1224.1 1119.76 1202.27 1122.37 1197.59L1123.91 1198.15Z"/><path fill="#684C02" d="M1122.37 1197.59L1123.91 1198.15C1120.38 1205.4 1111.67 1223.94 1107.38 1229.82L1106.56 1230L1107.26 1226.1C1109.42 1224.1 1119.76 1202.27 1122.37 1197.59Z"/><path fill="#FEA600" d="M974.591 1056.13C978.745 1057.28 991.542 1055.68 996.617 1055.53C1014.11 1055 1031.98 1054.02 1049.44 1053.36C1057.66 1053.05 1076.25 1051.15 1083.56 1051.87C1084.67 1053.97 1083.58 1055.4 1082.64 1058.43L1082.06 1060.27C1070.54 1064.25 1007.92 1080.61 1008.39 1091.85C1014.15 1095.34 1025.17 1090.03 1031.09 1087.82C1046.53 1082.05 1062.17 1076.95 1077.83 1071.82C1068.64 1100.53 1061.35 1127.21 1053.49 1156.35C1041.25 1168.64 1028.65 1180.56 1015.72 1192.11C1008.05 1172.56 1000.57 1152.94 993.269 1133.25C989.94 1124.29 985.053 1109.6 981.394 1101.24L979.285 1095.87C977.676 1090.68 974.707 1079.75 970.949 1076.3L974.591 1056.13Z"/><path d="M979.285 1095.87C979.648 1086.01 983.317 1071.06 994.687 1068.93C1010.16 1073.07 1001.11 1115.59 981.394 1101.24L979.285 1095.87Z"/><path fill="#FEF12B" d="M991.262 1075.71L993.35 1076.76C997.532 1082.86 993.742 1092.19 989.41 1097.22C983.36 1092.67 988.783 1081.31 991.262 1075.71Z"/><path fill="#FEA600" d="M978.711 1007.43C1021.02 1009.26 1061.53 1010.12 1103.9 1007.91C1117.54 1007.2 1135.08 1007.29 1148.35 1005.68C1142 1014.85 1132.29 1028.84 1123.56 1035.72C1110.06 1048.02 1099.07 1053.71 1082.06 1060.27L1082.64 1058.43C1083.58 1055.4 1084.67 1053.97 1083.56 1051.87C1076.25 1051.15 1057.66 1053.05 1049.44 1053.36C1031.98 1054.02 1014.11 1055 996.617 1055.53C991.542 1055.68 978.745 1057.28 974.591 1056.13L977.071 1036.06C977.737 1026.72 978.446 1016.78 978.711 1007.43Z"/><path fill="#FEF12B" d="M1011.71 1038.52L1012.58 1036.58C1015.88 1034.41 1107.96 1036.06 1118.78 1034.68C1120.39 1034.48 1122.1 1034.98 1123.56 1035.72C1110.06 1048.02 1099.07 1053.71 1082.06 1060.27L1082.64 1058.43C1083.58 1055.4 1084.67 1053.97 1083.56 1051.87C1076.25 1051.15 1057.66 1053.05 1049.44 1053.36C1031.98 1054.02 1014.11 1055 996.617 1055.53C991.542 1055.68 978.745 1057.28 974.591 1056.13L977.071 1036.06L985.534 1036.1C990.163 1056.32 1008.31 1060.79 1011.71 1038.52Z"/><path d="M985.534 1036.1C987.416 1008.44 1010.77 1014.05 1011.71 1038.52C1008.31 1060.79 990.163 1056.32 985.534 1036.1Z"/><path fill="#FEF12B" d="M995.519 1025.75C1004.39 1028.18 1005.01 1039.18 1001.22 1046.36C996.882 1044.65 994.395 1042.01 993.41 1037.33C992.54 1033.34 993.299 1029.18 995.519 1025.75Z"/><path fill="#FEF12B" d="M1187.85 760.486C1200.99 763.603 1214.12 766.793 1227.23 770.057C1270.29 854.151 1334.16 927.154 1397.73 996.326C1415.4 1015.56 1435.05 1035.1 1454.39 1052.7C1451.74 1087.02 1417.46 1173.74 1391.69 1194.13C1361.72 1217.84 1313.06 1224.96 1277.49 1254.07L1272.01 1240.21L1261.79 1213.4C1251.47 1185.68 1239.93 1155.78 1230.88 1127.67C1222.7 1106.22 1215.09 1080.75 1208.32 1058.73C1207.44 1054.99 1206.36 1050.79 1205.63 1047.07C1230.53 1061.31 1255.94 1074.64 1281.8 1087.05C1291.04 1091.46 1301.54 1095.36 1310.15 1099.59C1311.63 1097.82 1311.58 1097.55 1312.32 1095.42C1310.34 1091.85 1297.91 1088.66 1292.7 1086.4C1267.93 1075.65 1243.3 1063.56 1219.59 1050.66L1206.17 1043.45C1235 1034.85 1256.62 1027.82 1279.94 1007.77L1268.84 1011.83C1259.84 1015.82 1236.48 1026.33 1227.71 1028.46C1220.48 1030.8 1213.23 1033.07 1205.96 1035.25C1204.83 1026.61 1204.74 1012.39 1203.86 1002.52C1226.5 1001.09 1253.82 1000.16 1272.61 987.321C1277.32 915.188 1232.48 830.007 1195.43 771.041C1192.9 767.581 1190.22 764.05 1187.85 760.486Z"/><path fill="#FEA600" d="M1195.43 771.041C1203.83 773.05 1213.06 775.048 1221.24 777.597C1240.73 823.387 1266 854.923 1297.71 892.927C1307.64 904.823 1319.25 918.91 1329.73 930.148C1315.32 950.104 1300.76 969.946 1286.04 989.673C1280.88 996.447 1275.84 1003.26 1269.67 1009.11C1269.17 1009.58 1268.94 1011.2 1268.84 1011.83C1259.84 1015.82 1236.48 1026.33 1227.71 1028.46C1220.48 1030.8 1213.23 1033.07 1205.96 1035.25C1204.83 1026.61 1204.74 1012.39 1203.86 1002.52C1226.5 1001.09 1253.82 1000.16 1272.61 987.321C1277.32 915.188 1232.48 830.007 1195.43 771.041Z"/><path fill="#FEF12B" d="M1205.96 1035.25C1206.05 1032.95 1205.95 1031.98 1206.84 1029.82C1211.53 1026.83 1223.14 1025.61 1227.71 1028.46C1220.48 1030.8 1213.23 1033.07 1205.96 1035.25Z"/><path fill="#FEA600" d="M1219.59 1050.66C1234.5 1051.43 1249.42 1052.01 1264.35 1052.39C1272.19 1052.56 1289.89 1052 1296.54 1053.51C1342.87 1064.08 1388.97 1078.17 1435.03 1089.88C1426.39 1112.81 1418.57 1132.8 1408.39 1155.21C1398.1 1149.28 1312.35 1101.95 1310.15 1099.59C1311.63 1097.82 1311.58 1097.55 1312.32 1095.42C1310.34 1091.85 1297.91 1088.66 1292.7 1086.4C1267.93 1075.65 1243.3 1063.56 1219.59 1050.66Z"/><path fill="#FEA600" d="M1208.32 1058.73C1273.8 1093.37 1338.64 1129.21 1402.8 1166.24C1397.24 1177.17 1396.47 1179.78 1386.94 1187.7C1365.5 1180.07 1344.21 1172.03 1323.08 1163.57C1308.77 1157.82 1241.89 1128.82 1230.88 1127.67C1222.7 1106.22 1215.09 1080.75 1208.32 1058.73Z"/><path fill="#FEA600" d="M1261.79 1213.4C1288.97 1208.67 1320.44 1206.95 1348.25 1206.73C1327.3 1216.14 1288.39 1225.62 1272.01 1240.21L1261.79 1213.4Z"/><path fill="#FEA600" d="M1345.37 948.755C1348.39 951.085 1359.69 964.251 1362.99 967.97C1374.65 981.275 1386.5 994.417 1398.52 1007.39C1373.61 1012.18 1348.58 1016.36 1323.46 1019.91C1310.57 1020.75 1290.52 1024.37 1276.04 1025.75C1302.15 1001.3 1324.56 978.015 1345.37 948.755Z"/><path d="M1384.94 1016.99L1386.18 1017.38C1386.82 1019.12 1387.03 1019.74 1387.08 1021.65C1387.45 1037.17 1381.81 1052.23 1371.35 1063.69C1352.28 1057.07 1325.82 1054.59 1305.82 1049.71C1290.45 1045.96 1273.01 1049.66 1256.32 1048.25C1250.26 1047.65 1244.07 1047.2 1238.78 1043.92L1238.42 1042.31C1244.49 1041.6 1269.56 1044.82 1281.48 1043.74C1320.54 1040.2 1348.82 1028.68 1384.94 1016.99Z"/><path fill="#FEA600" d="M1302.86 1045.89C1333.58 1039.98 1352.03 1033.41 1381.28 1023.3C1381.29 1031.16 1381.01 1037.09 1379.08 1044.71C1376.45 1051.21 1374.76 1054.16 1370.71 1059.98C1360.69 1056.05 1338.95 1052.18 1327.98 1050C1322.49 1049.59 1308.86 1046.9 1302.86 1045.89Z"/><path fill="#FEF12B" d="M1327.98 1050C1328.13 1049.81 1328.25 1049.6 1328.43 1049.44C1330.66 1047.39 1373.29 1044.67 1379.08 1044.71C1376.45 1051.21 1374.76 1054.16 1370.71 1059.98C1360.69 1056.05 1338.95 1052.18 1327.98 1050Z"/><path d="M1291.46 1156.5C1301.34 1157.78 1335.55 1187.13 1348.52 1189.63C1350.58 1190.03 1351 1188.23 1354.15 1189.67L1354.41 1191.5C1350.71 1197.37 1332.28 1197.28 1325.5 1197.76C1311.48 1198.51 1297.96 1200.3 1284.06 1201.9C1278.61 1202.53 1270.67 1204.28 1267.91 1198.77C1268.31 1189.65 1285.76 1165.7 1291.46 1156.5Z"/><path fill="#FEA600" d="M1294.37 1162.93C1309.22 1171.88 1323.38 1181.41 1338.39 1190.05L1339.82 1191.06C1336.56 1193.15 1276.73 1198.64 1270.83 1198.27L1280.01 1183.57L1294.37 1162.93Z"/><path fill="#FEF12B" d="M1280.01 1183.57C1289.88 1184.33 1299.13 1185.09 1308.95 1186.17C1316.28 1186.98 1332.31 1190.52 1338.39 1190.05L1339.82 1191.06C1336.56 1193.15 1276.73 1198.64 1270.83 1198.27L1280.01 1183.57Z"/><path fill="#FEA600" d="M753.7 577.625C763.613 532.657 739.591 500.485 696.963 493.236C694.698 492.851 693.418 491.715 692.53 489.783C692.818 488.854 693.076 487.875 693.624 487.052C694.825 485.251 697.065 484.067 699.12 483.586C714.426 480.003 790.699 518.915 806.33 527.791C821.627 536.476 836.251 546.104 850.848 555.898L852.275 550.796C855.293 541.031 858.581 531.007 859.374 520.793C860.035 517.433 860.781 513.976 861.246 510.593C885.786 523.929 926.247 557.571 944.762 578.237C944.712 580.843 944.597 582.966 944.368 585.563C943.747 590.072 942.549 597.248 942.398 601.565C946.272 610.733 945.353 615.624 936.231 620.389C935.788 623.385 935.816 623.6 934.383 626.205C948.19 639.93 961.528 654.12 974.372 668.751L979.749 658.961C977.41 666.828 974.624 669.901 980.41 676.174L987.013 684.359C1008.08 712.594 1035.16 750.101 1019.12 786.713L1016.94 791.206C986.75 834.589 928.938 826.315 886.227 815.03C884.354 814.535 882.974 816.162 881.31 817.33L880.684 816.769L882.277 814.486C880.733 812.673 874.433 811.232 871.997 810.854L870.108 809.463C862.225 807.928 842.526 798.955 834.33 795.366C829.459 800.248 815.991 810.554 808.929 808.574L808.504 807.444C810.891 801.1 819.579 795.315 825.076 791.026L813.541 785.733C779.898 768.612 747.781 748.647 717.539 726.056C708.656 718.927 706.113 719.63 699.108 714.599C694.076 710.985 674.584 687.167 668.669 685.42C666.021 689.202 668.689 690.308 662.768 692.568C657.092 694.734 655.736 696.592 652.317 701.412C653.256 687.181 654.991 681.938 652.477 667.866C643.085 656.864 634.012 645.554 624.319 634.718C621.412 631.469 619.962 625.151 615.719 620.179L614.75 620.517C604.961 645.732 631.646 650.589 630.796 660.887C620.316 670.727 606.318 655.425 603.024 645.571C601.01 639.544 597.773 624.405 601.903 618.963C606.686 612.66 609.636 602.433 616.589 600.261C625.745 601.041 632.295 617.767 637.996 624.762C654.334 644.809 675.585 676.878 696.228 691.879C710.591 686.312 717.182 693.473 716.7 707.608C716.53 712.589 723.982 717.318 727.596 720.046C748.702 704.392 759.265 695.628 777.445 676.476C766.252 657.795 768.287 640.141 777.333 620.69C778.973 617.165 780.779 615.783 784.402 614.81C788.621 620.114 766.398 652.006 783.347 669.486C791.634 661.057 798.664 651.08 805.57 641.469C838.063 655.477 867.401 679.481 892.698 703.831C872.468 729.659 860.853 743.111 836.424 766.064C837.298 774.455 838.836 777.95 837.486 786.424C851.284 792.606 862.785 797.134 876.911 802.421C897.048 778.868 913.874 760.89 932.224 734.666C932.981 726.258 933.239 719.029 943.59 718.148C950.448 709.043 958.643 695.013 964.121 685.107C948.995 683.577 953.897 671.451 953.95 661.846C951.174 654.958 937.188 642.182 931.214 636.273C922.38 658.344 908.008 682.644 893.947 701.822C881.45 685.92 866.633 671.987 849.993 660.492C834.892 649.843 823.448 646.48 812.068 631.865C823.641 614.019 831.883 598.703 841.049 579.639L846.742 566.404C815.965 546.224 788.793 530.914 754.774 516.325C766.315 539.064 766.168 555.522 753.7 577.625Z"/><path fill="#FEF12B" d="M777.445 676.476C766.252 657.795 768.287 640.141 777.333 620.69C778.973 617.165 780.779 615.783 784.402 614.81C788.621 620.114 766.398 652.006 783.347 669.486C791.634 661.057 798.664 651.08 805.57 641.469C838.063 655.477 867.401 679.481 892.698 703.831C872.468 729.659 860.853 743.111 836.424 766.064C832.149 758.08 824.4 743.944 814.287 743.408C811.394 744.427 811.496 744.295 809.69 746.732C808.908 754.459 832.114 766.297 823.69 779.226C819.711 779.56 814.741 775.526 813.834 771.608C813.044 768.193 808.627 764.018 806.182 761.459C795.064 749.817 791.9 734.452 796.545 719.155C797.921 714.624 803.055 703.928 800.209 700.035L798.406 700.345C792.004 705.507 788.298 716.507 786.28 724.244C774.46 704.88 758.965 717.846 761.922 729.735C763.082 734.3 766.148 738.147 770.339 740.297C775.431 742.853 779.107 741.687 784.049 739.862C785.036 741.65 787.546 755.299 790.584 762.408C769 750.367 747.127 735.115 727.596 720.046C748.702 704.392 759.265 695.628 777.445 676.476Z"/><path fill="#FEA600" d="M777.445 676.476C766.252 657.795 768.287 640.141 777.333 620.69C778.973 617.165 780.779 615.783 784.402 614.81C788.621 620.114 766.398 652.006 783.347 669.486C785.65 678.622 798.673 677.866 796.449 684.405C786.317 687.125 784.063 684.248 777.445 676.476Z"/><path fill="#FEA600" d="M794.523 658.354C817.505 655.46 835.127 709.195 810.058 724.963C806.839 725.495 804.116 725.19 801.714 723.071C801.973 718.482 809.42 713.785 810.598 706.191C813.597 686.866 801.931 677.745 793.445 664.822C792.838 661.81 793.289 661.355 794.523 658.354Z"/><path d="M968.557 684.626L971.156 681.675C973.894 681.927 973.214 682.17 975.684 685.104L982.282 693.499C1001.24 719.237 1020.78 746.306 1012.1 779.783L1009.72 784.424C990.445 819.185 938.767 817.76 905.086 810.084C902.044 809.391 895.78 808.032 893.386 806.681L891.899 806.604C887.346 805.508 884.56 804.513 880.183 802.929L876.911 802.421C897.048 778.868 913.874 760.89 932.224 734.666C932.981 726.258 933.239 719.029 943.59 718.148C950.448 709.043 958.643 695.013 964.121 685.107L968.557 684.626Z"/><path d="M932.224 734.666L933.997 739.548C935.671 741.509 937.365 743.588 939.146 745.438C923.417 768.403 910.622 785.881 891.899 806.604C887.346 805.508 884.56 804.513 880.183 802.929L876.911 802.421C897.048 778.868 913.874 760.89 932.224 734.666Z"/><path fill="#FDFDFD" d="M932.224 734.666L933.997 739.548C917.319 761.509 899.67 783.385 880.183 802.929L876.911 802.421C897.048 778.868 913.874 760.89 932.224 734.666Z"/><path d="M968.557 684.626L971.156 681.675C973.894 681.927 973.214 682.17 975.684 685.104L982.282 693.499C975.299 705.288 967.947 717.795 960.073 728.966C958.189 725.717 956.91 724.526 954.356 721.847L948.423 718.78L943.59 718.148C950.448 709.043 958.643 695.013 964.121 685.107L968.557 684.626Z"/><path fill="#FDFDFD" d="M975.684 685.104L982.282 693.499C975.299 705.288 967.947 717.795 960.073 728.966C958.189 725.717 956.91 724.526 954.356 721.847C961.8 709.244 968.563 698.049 975.684 685.104Z"/><path fill="#FDFDFD" d="M964.121 685.107L968.557 684.626C961.777 696.825 955.52 706.965 948.423 718.78L943.59 718.148C950.448 709.043 958.643 695.013 964.121 685.107Z"/><path fill="#FEA600" d="M932.224 734.666C932.981 726.258 933.239 719.029 943.59 718.148L948.423 718.78L954.356 721.847C956.91 724.526 958.189 725.717 960.073 728.966C961.898 739.067 959.066 745.712 948.346 747.732C947.75 747.842 947.151 747.94 946.55 748.025L939.146 745.438C937.365 743.588 935.671 741.509 933.997 739.548L932.224 734.666Z"/><path fill="#FEF12B" d="M940.066 726.438C949.477 725.791 957.806 729.302 951.461 739.744C942.169 741.4 936.483 735.075 940.066 726.438Z"/><path fill="#FDFDFD" d="M939.146 745.438L946.55 748.025C931.72 767.017 911.969 791.29 893.386 806.681L891.899 806.604C910.622 785.881 923.417 768.403 939.146 745.438Z"/><path fill="#FDFDFD" d="M1009.72 784.424C1000.48 775.677 990.11 769.033 978.772 763.413C993.034 766.623 1000.57 770.414 1012.1 779.783L1009.72 784.424Z"/><path fill="#FEF12B" d="M841.049 579.639C864.546 588.786 884.59 600.791 906.122 613.704C912.493 620.254 922.794 627.55 931.214 636.273C922.38 658.344 908.008 682.644 893.947 701.822C881.45 685.92 866.633 671.987 849.993 660.492C834.892 649.843 823.448 646.48 812.068 631.865C823.641 614.019 831.883 598.703 841.049 579.639Z"/><path fill="#1B1A1A" d="M859.374 520.793C860.035 517.433 860.781 513.976 861.246 510.593C885.786 523.929 926.247 557.571 944.762 578.237C944.712 580.843 944.597 582.966 944.368 585.563C943.747 590.072 942.549 597.248 942.398 601.565C946.272 610.733 945.353 615.624 936.231 620.389C929.023 618.416 927.834 616.429 923.089 610.828C919.632 608.808 916.065 606.933 912.538 605.032C890.034 586.653 875.241 573.654 850.848 555.898L852.275 550.796C855.293 541.031 858.581 531.007 859.374 520.793Z"/><path fill="#FEF12B" d="M852.275 550.796C878.079 564.573 899.753 577.88 922.628 596.236C921.511 602.666 921.854 604.315 923.089 610.828C919.632 608.808 916.065 606.933 912.538 605.032C890.034 586.653 875.241 573.654 850.848 555.898L852.275 550.796Z"/><path fill="#FEF12B" d="M859.374 520.793C860.035 517.433 860.781 513.976 861.246 510.593C885.786 523.929 926.247 557.571 944.762 578.237C944.712 580.843 944.597 582.966 944.368 585.563C914.192 557.534 894.85 541.37 859.374 520.793Z"/><path fill="#FEA600" d="M922.628 596.236C929.896 591.045 937.236 596.103 942.398 601.565C946.272 610.733 945.353 615.624 936.231 620.389C929.023 618.416 927.834 616.429 923.089 610.828C921.854 604.315 921.511 602.666 922.628 596.236Z"/><path fill="#FEF12B" d="M927.829 599.51C937.228 600.481 939.814 604.313 938.397 613.433C930.588 612.733 927.285 607.027 927.829 599.51Z"/><path fill="#FEA600" d="M873.988 538.609C882.577 538.26 887.374 541.182 893.43 546.921C899.934 553.086 905.428 560.849 898.404 568.474C885.546 569.083 873.068 562.826 870.746 548.257C869.942 543.213 870.868 542.234 873.988 538.609Z"/><path fill="#FEF12B" d="M877.231 546.286C886.874 547.181 892.473 554.147 896.391 562.225C884.876 560.791 881.135 556.387 877.231 546.286Z"/><path fill="#1B1A1A" d="M846.742 566.404C858.288 574.513 899.406 604.02 906.122 613.704C884.59 600.791 864.546 588.786 841.049 579.639L846.742 566.404Z"/><path fill="#1B1A1A" d="M912.538 605.032C916.065 606.933 919.632 608.808 923.089 610.828C927.834 616.429 929.023 618.416 936.231 620.389C935.788 623.385 935.816 623.6 934.383 626.205C927.375 619.484 919.043 612.047 912.538 605.032Z"/><path fill="#FEF12B" d="M769.257 720.544C779.727 720.354 783.702 726.991 778.6 736.172C769.623 735.911 765.216 728.714 769.257 720.544Z"/><path fill="#FEF12B" d="M956.987 664.263C961.083 666.67 967.762 674.043 968.032 679.056C956.438 681.483 957.293 673.154 956.987 664.263Z"/><path fill="#FEF12B" d="M701.631 694.58C707.796 696.299 711.318 699.434 711.198 706.155C706.872 703.403 701.245 699.861 701.631 694.58Z"/><defs><linearGradient id="gradient_1" gradientUnits="userSpaceOnUse" x1="866.14691" y1="1294.0078" x2="1014.4204" y2="1237.569"><stop offset="0" stop-color="#FF9500"/><stop offset="1" stop-color="#FFFF01"/></linearGradient></defs><path fill="url(#gradient_1)" d="M957.908 1122.63C961.014 1113.49 963.96 1104.78 966.675 1095.51C986.722 1150.01 1009.05 1204.09 1028.66 1258.19C1033.12 1270.41 1037.44 1282.68 1041.61 1295C1043.15 1299.71 1049.32 1322.83 1050.8 1324.96C1050.79 1329.59 1046.12 1335.51 1043.42 1339.6C1036.85 1342.2 1031 1345.19 1024.92 1348.78C1002.5 1362 979.361 1373.66 956.449 1385.98C909.566 1346.86 878.734 1305.67 849.349 1253.07C843.469 1242.5 835.464 1237.75 837.387 1225.38C841.428 1199.39 849.509 1174.72 859.024 1150.37C860.213 1157.14 861.118 1160.62 863.199 1167.19C872.228 1186.79 882.114 1194.58 904.268 1189.74C894.493 1217.16 900.809 1202.97 910.973 1220.22C931.443 1254.96 948.403 1292.61 973.909 1324.29C975.907 1326.81 979.992 1329.9 981.261 1332.04L982.544 1332.06C977.509 1309.03 952.433 1177.69 956.028 1165.06C959.207 1164.58 962.373 1164.02 965.52 1163.37C972.382 1157.43 979.507 1150.23 976.479 1140.05C972.465 1135.43 966.957 1135.96 961.591 1138.18L953.064 1147.69C952.063 1134.96 953.124 1134.31 957.908 1122.63Z"/><path fill="#FEA600" d="M957.908 1122.63C961.014 1113.49 963.96 1104.78 966.675 1095.51C986.722 1150.01 1009.05 1204.09 1028.66 1258.19C1033.12 1270.41 1037.44 1282.68 1041.61 1295C1043.15 1299.71 1049.32 1322.83 1050.8 1324.96C1036.97 1328.64 1012.34 1342.94 999.15 1350.31C991.223 1309.38 983.757 1268.37 976.755 1227.27C973.833 1210.26 969.482 1178.39 965.52 1163.37C972.382 1157.43 979.507 1150.23 976.479 1140.05C972.465 1135.43 966.957 1135.96 961.591 1138.18L953.064 1147.69C952.063 1134.96 953.124 1134.31 957.908 1122.63Z"/><path fill="#FEF12B" d="M957.908 1122.63C960.16 1126.77 960.99 1133.4 961.591 1138.18L953.064 1147.69C952.063 1134.96 953.124 1134.31 957.908 1122.63Z"/><path fill="#FEF12B" d="M849.349 1253.07C843.469 1242.5 835.464 1237.75 837.387 1225.38C841.428 1199.39 849.509 1174.72 859.024 1150.37C860.213 1157.14 861.118 1160.62 863.199 1167.19C856.556 1185.73 848.132 1207.73 842.618 1226.51C844.473 1234.16 851.087 1248.39 849.349 1253.07Z"/><path fill="#6C6403" d="M981.261 1332.04L982.544 1332.06C983.751 1335.27 984.722 1337.07 984.615 1340.51L983.642 1340.22C981.898 1336.77 981.846 1335.9 981.261 1332.04Z"/><path fill="#FEF12B" d="M356.776 734.648C360.909 734.515 408.515 765.457 415.303 769.831C397.273 842.518 380.659 921.578 365.654 994.712C337.013 999.229 304.787 1002.05 275.902 1003.79C267.604 1003.98 257.198 1005 248.754 1005.63C246.13 992.841 240.845 978.388 237.156 965.594C233.045 951.342 230.942 940.323 228.501 925.677C235.888 925.211 243.268 924.64 250.639 923.962C277.471 921.322 306.881 918.135 324.951 895.292C347.821 866.381 341.754 821.535 338.177 787.677C347.006 772.426 345.777 764.682 343.47 747.025C341.547 744.984 338.392 742.638 336.126 740.833C344.092 738.897 349.137 737.85 356.776 734.648Z"/><path fill="#FEF12B" d="M862.663 904.425C911.936 888.014 1018.49 888.786 1071.05 897.996C1088.69 901.087 1106.92 906.018 1124.04 911.301C1133.57 915.481 1151.97 922.653 1159.63 928.407C1151.69 931.587 1136.98 937.973 1129.31 940.176C1089.91 956.097 1044.9 968.808 1003.74 979.044C993.181 969.562 985.663 972.377 979.979 984.679C967.843 987.216 954.489 989.722 942.527 992.631C938.214 984.531 935.217 985.139 927.417 980.587C918.907 974.58 908.245 964.922 900.252 957.983C895.686 953.632 885.681 944.475 882.637 939.466C874.739 926.47 872.48 917.047 862.663 904.425Z"/><path fill="#1B1A1A" d="M1124.04 911.301C1133.57 915.481 1151.97 922.653 1159.63 928.407C1151.69 931.587 1136.98 937.973 1129.31 940.176C1089.91 956.097 1044.9 968.808 1003.74 979.044C993.181 969.562 985.663 972.377 979.979 984.679C967.843 987.216 954.489 989.722 942.527 992.631C938.214 984.531 935.217 985.139 927.417 980.587C918.907 974.58 908.245 964.922 900.252 957.983C910.956 956.45 929.228 951.832 940.666 949.364C963.553 944.508 986.466 939.775 1009.4 935.163L1083.29 920.115C1094.38 917.857 1113.79 914.459 1124.04 911.301Z"/><path fill="#FEF12B" d="M927.417 980.587C941.221 976.679 963.105 972.769 977.718 969.759L1075.66 949.74C1091.26 946.491 1110.82 942.237 1126.78 938.565C1127.98 938.288 1128.15 938.998 1129.31 940.176C1089.91 956.097 1044.9 968.808 1003.74 979.044C993.181 969.562 985.663 972.377 979.979 984.679C967.843 987.216 954.489 989.722 942.527 992.631C938.214 984.531 935.217 985.139 927.417 980.587Z"/><path fill="#FEF12B" d="M702.831 292.787C773.521 290.496 837.249 321.486 881.752 375.927C873.837 404.781 868.017 437.457 862.541 466.88C843.389 461.334 823.94 456.872 804.287 453.513C799.965 452.812 795.637 452.497 791.277 452.112C792.819 428.442 797.196 416.21 816.668 401.065C790.635 387.936 761.094 376.213 732.292 371.099C703.348 381.731 695.257 385.742 668.302 399.875C669.644 389.066 671.132 378.277 672.765 367.508C682.155 356.884 692.045 345.999 700.95 335.021C703.685 317.074 703.563 310.955 702.831 292.787Z"/><path fill="#FEA600" d="M789.497 892.999C800.9 892.132 806.925 892.12 818.172 893.936C823.965 895.432 830.575 897.21 835.966 899.905C846.847 905.675 855.61 912.176 862.302 922.816C863.984 925.835 865.645 928.642 867.003 931.825C871.63 946.941 871.619 955.476 866.836 970.645C863.192 978.664 860.535 983.72 855.049 990.707C844.132 1002.29 835.562 1009.73 820.59 1016.44C811.276 1020.1 804.427 1022.5 794.33 1024.24C775.22 1025.57 766.883 1025.24 749.219 1017.41C742.618 1013.54 739.121 1010.31 734.049 1004.72C724.248 990.961 722.592 982.688 721.963 965.969C722.481 962.23 723.041 958.497 723.642 954.771C725.892 943.827 730.42 936.201 736.448 927.032C740.139 922.104 744.019 918.502 748.385 914.219C753.25 908.238 761.197 903.487 767.998 900.084C775.29 895.972 781.34 894.791 789.497 892.999Z"/><path fill="#4FF9F1" d="M820.59 1016.44C813.051 995.316 837.307 984.508 855.049 990.707C844.132 1002.29 835.562 1009.73 820.59 1016.44Z"/><path fill="#4FF9F1" d="M749.219 1017.41C762.159 1008.8 783.479 1005.33 792.648 1021.08C793.242 1022.11 793.803 1023.17 794.33 1024.24C775.22 1025.57 766.883 1025.24 749.219 1017.41Z"/><path fill="#4FF9F1" d="M721.963 965.969C738.46 973.073 743.639 989.338 734.049 1004.72C724.248 990.961 722.592 982.688 721.963 965.969Z"/><path fill="#4FF9F1" d="M867.003 931.825C871.63 946.941 871.619 955.476 866.836 970.645C866.293 970.123 865.757 969.592 865.229 969.053C852.722 956.21 854.892 943.524 867.003 931.825Z"/><path fill="#4FF9F1" d="M835.966 899.905C846.847 905.675 855.61 912.176 862.302 922.816C848.068 924.39 833.03 916.325 835.966 899.905Z"/><path fill="#4FF9F1" d="M736.448 927.032C743.664 940.297 736.431 949.795 723.642 954.771C725.892 943.827 730.42 936.201 736.448 927.032Z"/><path fill="#4FF9F1" d="M789.497 892.999C800.9 892.132 806.925 892.12 818.172 893.936C807.412 901.71 799.495 902.194 789.497 892.999Z"/><path fill="#4FF9F1" d="M748.385 914.219C753.25 908.238 761.197 903.487 767.998 900.084C763.638 909.622 758.809 912.473 748.385 914.219Z"/><path d="M792.387 901.103C846.617 896.357 853.487 943.789 825.528 980.724C815.216 994.345 801.728 999.926 784.993 1001.66C716.008 1005.5 723.286 913.067 792.387 901.103Z"/><path fill="#FDFDFD" d="M794.883 904.888C844.301 900.482 847.11 947.86 822.252 978.485C811.84 991.312 800.969 995.898 784.911 997.583C719.8 997.616 733.531 926.413 779.98 908.004C784.447 906.234 790.123 905.556 794.883 904.888Z"/><path d="M819.026 920.481L820.171 922.453C818.504 926.76 789.42 954.973 784.033 960.898C781.172 961.776 782.587 961.807 779.657 960.543C776.681 957.111 775.216 951.492 773.688 947.026C772.043 943.272 770.069 940.597 772.083 936.724C775.787 938.282 779.453 949.694 780.96 953.755C790.422 939.606 805.288 930.114 819.026 920.481Z"/><path fill="#FEF12B" d="M646.666 28.3223C679.764 21.8247 713.787 20.1674 745.709 12.6766C752.191 23.3273 758.421 32.3955 764.794 43.4188C779.767 69.6923 793.399 96.7077 805.637 124.361C768.651 149.37 726.509 177.29 691.334 204.285C689.537 199.798 685.852 191.497 689.105 187.73C696.307 179.389 724.463 154.144 732.105 149.005L731.356 147.485C716.03 157.563 703.649 165.627 689.651 177.535C699.162 152.936 711.756 127.85 722.694 103.768C725.816 96.8955 734.538 85.4907 736.223 79.9012C733.297 74.1639 711.609 64.7424 705.226 60.8234C703.761 59.9241 701.545 61.3074 700.276 62.042C695.734 68.7493 685.541 160.527 682.058 176.759C670.801 127.153 659.003 77.6711 646.666 28.3223Z"/><path fill="#6C6403" d="M731.356 147.485C734.051 145.468 736.246 143.307 739.452 142.831C738.663 145.128 734.357 147.531 732.105 149.005L731.356 147.485Z"/><path fill="#FEA600" d="M421.37 307.938L422.399 308.346C424.222 310.342 425.037 314.533 425.678 317.284C438.533 372.428 442.288 428.493 443.513 484.892C416.017 485.012 388.523 484.568 361.046 483.563L341.412 482.618C338.807 474.917 336.995 469.157 335.56 461.107C350.796 421.423 393.234 339.8 421.37 307.938Z"/><path fill="#FEF12B" d="M547.204 851.786C551.433 856.264 562.437 934.386 564.312 946.472C565.01 950.975 564.869 953.122 569.518 955.323C571.911 954.362 588.363 932.614 591.336 928.884C593.897 933.677 600.21 946.892 604.368 949.093L605.084 947.792C598.941 930.778 590.953 912.67 583.833 895.973C595.976 900.605 609.838 907.291 621.784 912.774C628.842 926.318 634.888 938.222 642.416 951.645C635.064 975.285 625.706 1001.71 607.459 1018.82C578.967 1015.68 540.193 1004.21 513.057 994.845C513.52 974.712 512.541 943.152 515.017 922.533C515.603 917.654 539.262 863.958 542.53 854.859C544.359 853.657 545.917 852.632 547.204 851.786Z"/><path fill="#1B1A1A" d="M1088.59 643.126C1116.26 667.328 1139.83 691.439 1155.44 725.557C1176.3 760.928 1178.44 789.672 1183.63 829.342C1184.26 834.11 1184.94 839.022 1185.14 843.824L1186.65 849.956C1187.27 852.198 1187.69 862.612 1188.05 866.171C1188.75 872.337 1191.22 884.232 1188 888.822C1182.17 888.737 1179.09 882.598 1175.36 878.376C1174.73 877.182 1175.18 877.896 1174.31 876.794C1162.94 862.39 1153.05 846.059 1143.65 830.345C1128.88 804.998 1117.19 782.622 1106.5 755.256L1105.6 754.758C1103.96 746.821 1099.73 738.866 1098.17 729.748C1094.65 724.906 1091.16 701.999 1090.07 695.464C1088.45 683.715 1087.64 671.871 1087.62 660.012C1087.9 654.446 1088.1 648.656 1088.59 643.126Z"/><path fill="#FEF12B" d="M1090.07 695.464C1112.78 716.393 1130.52 743.999 1142.32 772.446C1146.07 781.48 1150.02 785.897 1147.31 795.905C1144.7 792.237 1141.84 785.306 1139.06 780.501C1129.47 763.869 1113.66 741.153 1098.17 729.748C1094.65 724.906 1091.16 701.999 1090.07 695.464Z"/><path fill="#FEF12B" d="M1088.59 643.126C1116.26 667.328 1139.83 691.439 1155.44 725.557C1155.27 729.192 1154.45 734.735 1154 738.512C1136.01 705.883 1117.52 682.364 1087.62 660.012C1087.9 654.446 1088.1 648.656 1088.59 643.126Z"/><path fill="#FEF12B" d="M1106.5 755.256C1120.04 766.871 1146.56 812.886 1143.65 830.345C1128.88 804.998 1117.19 782.622 1106.5 755.256Z"/><path fill="#FEF12B" d="M1178.02 857.088C1181.63 859.81 1184.78 863.033 1188.05 866.171C1188.75 872.337 1191.22 884.232 1188 888.822C1182.17 888.737 1179.09 882.598 1175.36 878.376L1178.02 857.088Z"/><path fill="#FEF12B" d="M1186.65 849.956L1185.81 850.908L1183.89 850.552C1180.21 847.919 1178.26 843.074 1180.51 839.003C1183.24 840.012 1183.05 840.869 1185.14 843.824L1186.65 849.956Z"/><path fill="#FEA600" d="M559.905 359.846C563.375 361.191 624.374 428.174 632.691 437.274C628.12 443.759 624.158 462.724 622.117 471.035C598.828 474.91 575.397 477.877 551.877 479.93C536.62 481.261 521.338 482.309 506.041 483.073C506.589 479.545 506.804 475.65 507.091 472.067C510.737 469.425 514.65 465.793 518.081 462.767L509.528 455.825C511.369 454.138 513.19 452.429 514.991 450.7C518.428 447.366 518.551 447.007 518.609 442.902C517.035 439.564 514.672 438.558 511.503 436.498C515.631 433.179 518.865 429.878 522.618 426.158C519.265 421.195 517.182 419.165 512.932 414.844C513.78 413.944 514.605 413.023 515.407 412.083C523.133 403.061 517.43 402.749 516.947 397.104C540.311 392.532 548.843 380.15 559.905 359.846Z"/><path fill="#FEA600" d="M573.728 325.859C576.606 327.169 587.071 331.365 588.93 332.988C602.842 345.136 616.346 361.755 628.383 375.957C644.672 395.176 659.851 412.179 677.245 430.284C669.72 464.89 664.414 491.471 659.235 526.47C645.573 540.001 632.765 554.71 619.04 568.186C603.995 582.958 587.822 596.638 572.862 611.536C566.631 617.74 560.11 624.023 553.068 629.283C544.55 630.607 538.003 631.311 529.333 632.962C544.705 619 614.617 551.692 620.773 538.022C625.25 528.079 626.634 515.293 628.891 504.551C633.844 480.982 638.933 457.269 642.672 433.479C618.195 407.496 587.813 375.068 565.405 348.257C568.577 340.964 571.098 333.369 573.728 325.859Z"/><path fill="#FEF12B" d="M506.133 691.063C506.542 692.11 507.327 701.167 507.199 702.571C506.313 712.288 518.86 746.277 528.17 746.514C531.197 743.526 529.817 740.989 531.424 738.032C545.295 712.518 562.438 717.692 583.611 724.284C590.551 758.262 598.203 781.377 610.555 813.353L592.564 813.603C580.169 814.959 556.315 815.165 543.445 815.307C536.64 804.422 530.679 790.163 522.397 781.17C506.357 763.755 484.725 748.652 460.591 747.176C466.391 709.925 475.459 711.367 506.133 691.063Z"/><path fill="#FEF12B" d="M506.123 126.11C520.516 137.566 543.974 161.795 557.934 175.524C534.708 170.151 506.186 164.954 482.209 163.579C513.246 176.668 554.847 184.821 584.477 202.042C586.903 203.452 592.423 209.401 594.558 211.674C581.979 211.598 550.497 215.935 537.066 217.472C526.537 218.626 516.019 219.865 505.51 221.187C501.806 211.827 493.771 200.554 487.14 192.915C486.203 192.567 485.257 192.243 484.304 191.943C467.138 186.589 455.609 192.789 440.268 198.325C423.931 204.22 410.31 208.972 394.791 216.963C392.958 195.061 393.835 183.088 395.303 161.456C420.147 156.013 456.343 156.367 480.25 147.583C484.241 146.116 501.592 130.155 506.123 126.11Z"/><path fill="#FEF12B" d="M1180.94 763.954C1186.11 767.58 1197.71 788.752 1201.66 795.55C1236.37 855.245 1258.89 910.583 1265.68 979.364C1262.5 980.549 1258.98 981.39 1255.68 982.273C1239.21 985.16 1219.49 987.079 1202.76 988.469C1201.04 966.521 1198.62 944.633 1195.5 922.839L1200.18 918.952C1202.75 910.834 1195.56 850.298 1193.97 837.775C1191.12 815.33 1186.75 785.456 1180.94 763.954Z"/><path fill="#FEF12B" d="M840.977 215.35C841.451 215.422 842.132 215.411 842.334 215.905C859.677 258.381 871.233 315.739 877.196 359.42C839.696 316.947 780.433 291.239 724.41 287.181C715.615 286.931 711.173 287.048 702.44 287.989C702.151 283.148 701.823 278.309 701.456 273.473C714.109 268.453 726.734 263.363 739.331 258.204C740.798 266.06 740.425 282.608 744.843 286.538C749.469 286.175 776.13 271.986 785.979 269.677C794.077 267.778 831.759 262.709 833.85 256.53C830.354 250.533 783.562 244.929 774.742 243.768C797.071 234.891 819.157 225.415 840.977 215.35Z"/><path fill="#FEA600" d="M895.164 1047.23C913.95 1052.2 935.389 1055.68 954.134 1063.19C956.243 1064.03 957.529 1069.2 958.341 1071.66C961.661 1080.07 957.609 1089.53 955.273 1098.72C953.677 1103.65 951.731 1110.27 949.752 1114.89C948.256 1102.71 947.722 1098.48 948.724 1086.09C934.498 1102.44 932.927 1127.62 918.388 1141.64C916.506 1154.77 915.077 1175.58 900.688 1180.2C877.86 1185.91 870.779 1164.96 868.576 1147C865.082 1120.31 879.249 1097.75 885.611 1072.58C887.573 1064.81 891.214 1054.04 895.164 1047.23Z"/><path fill="#FEF12B" d="M895.164 1047.23C913.95 1052.2 935.389 1055.68 954.134 1063.19C956.243 1064.03 957.529 1069.2 958.341 1071.66C961.661 1080.07 957.609 1089.53 955.273 1098.72C953.677 1103.65 951.731 1110.27 949.752 1114.89C948.256 1102.71 947.722 1098.48 948.724 1086.09C934.498 1102.44 932.927 1127.62 918.388 1141.64C916.506 1154.77 915.077 1175.58 900.688 1180.2C899.243 1177.52 913.708 1121.27 916.928 1117.2C928.702 1110.77 927.297 1097.65 924.922 1086.49C927.15 1079.32 929.144 1072.99 931.841 1065.94C921.635 1062.49 913.269 1059.43 903.563 1054.54C900.513 1063.34 872.41 1144.6 869.708 1146.73L868.576 1147C865.082 1120.31 879.249 1097.75 885.611 1072.58C887.573 1064.81 891.214 1054.04 895.164 1047.23Z"/><path fill="#FEA600" d="M958.341 1071.66C961.661 1080.07 957.609 1089.53 955.273 1098.72C954.067 1092.08 951.31 1077.89 951.344 1071.77C952.889 1070.82 956.127 1071.49 958.341 1071.66Z"/><path d="M916.928 1117.2C892.486 1110.95 910.329 1062.59 924.922 1086.49C927.297 1097.65 928.702 1110.77 916.928 1117.2Z"/><path fill="#FEF12B" d="M916.128 1087.11C922.031 1092.65 919.487 1103.92 916.055 1110.34C910.193 1103.45 910.831 1094.11 916.128 1087.11Z"/><path fill="#FEF12B" d="M690.054 739.451C689.768 719.229 662.248 707.885 658.753 700.362C663.554 694.436 670.942 699.148 675.693 702.707C687.667 711.681 695.147 721.216 698.766 735.713C704.817 733.496 712.064 729.408 717.539 726.056C747.781 748.647 779.898 768.612 813.541 785.733L811.203 788.007L811.394 791.169C800.701 797.428 791.078 800.047 786.678 814.427C782.636 827.633 794.394 831.527 789.367 838.92C774.555 840.989 776.675 815.745 779.671 806.582C766.838 803.064 754.082 799.27 741.412 795.203C742.19 800.054 744.758 802.534 744.708 810.132C744.624 822.897 740.044 828.113 731.637 836.71C749.276 789.64 700.2 794.667 692.858 776.34C686.687 773.041 680.547 769.684 674.438 766.271C673.076 760.421 674.857 749.868 676.353 744.047C680.546 743.745 685.988 741.126 690.054 739.451Z"/><path fill="#FEA600" d="M692.858 776.34C697.652 772.734 698.848 772.402 705.118 773.31C715.432 774.803 726.52 782.228 734.483 788.67C736.375 790.2 739.843 794.232 741.412 795.203C742.19 800.054 744.758 802.534 744.708 810.132C744.624 822.897 740.044 828.113 731.637 836.71C749.276 789.64 700.2 794.667 692.858 776.34Z"/><path fill="#FEA600" d="M690.054 739.451C689.768 719.229 662.248 707.885 658.753 700.362C663.554 694.436 670.942 699.148 675.693 702.707C687.667 711.681 695.147 721.216 698.766 735.713C698.792 746.534 697.89 754.431 689.847 762.628C688.581 763.907 687.284 765.156 685.959 766.374C688.585 758.407 691.973 747.987 690.054 739.451Z"/><path fill="#FEA600" d="M779.671 806.582C787.234 793.44 796.431 789.021 811.203 788.007L811.394 791.169C800.701 797.428 791.078 800.047 786.678 814.427C782.636 827.633 794.394 831.527 789.367 838.92C774.555 840.989 776.675 815.745 779.671 806.582Z"/><path fill="#FEF12B" d="M602.686 220.048C615.711 231.821 630.162 247.507 642.312 260.409C634.066 282.937 625.527 305.358 616.698 327.664C610.315 327.23 607.254 327.221 600.87 327.629C595.471 324.05 588.656 317.62 583.728 313.2C581.289 312.733 579.984 312.69 577.916 311.276C575.285 301.641 582.724 299.499 573.279 287.834C550.874 279.612 537.45 305.36 526.81 304.058C526.264 303.524 525.717 302.99 525.17 302.456C525.717 297.254 527.296 288.018 526.245 283.14C524.093 273.152 520.825 266.494 515.617 258.081C537.858 259.025 577.991 260.405 596.843 248.364C603.902 243.855 605.242 239.366 606.67 231.849C605.59 227.116 604.49 224.534 602.686 220.048Z"/><path fill="#FEF12B" d="M1076.07 507.422C1124.73 534.148 1172.11 565.405 1218.13 596.446C1228.48 603.426 1240.02 611.023 1249.44 619.08C1267.94 612.872 1284.11 603.762 1301.4 594.726C1308.5 613.39 1305.92 628.866 1310.89 646.902C1311.33 648.494 1314.78 648.973 1316.18 649.132C1318.68 648.767 1320.8 647.918 1322.4 649.086C1320.52 652.268 1312.81 657.254 1309.38 659.721C1303.13 651.101 1295.01 641.394 1288.29 632.948C1275.98 631.262 1260.46 628.619 1248.34 628.65C1195.72 595.652 1126.12 561.373 1069.17 537.39C1071.56 527.421 1073.86 517.432 1076.07 507.422Z"/><path fill="#FEA600" d="M498.832 543.966C532.196 545.402 565.398 547.224 598.704 544.075C583.364 560.529 563.042 580.816 546.828 596.127L509.927 632.497C501.578 633.077 490.761 634.208 482.601 633.503C488.498 604.229 493.754 573.411 498.832 543.966Z"/><path fill="#FEF12B" d="M1178.52 931.568C1182.29 935.217 1159.48 986.342 1155.45 992.566C1142.36 994.278 1124.9 995.18 1111.54 996.08C1075.79 998.739 1039.95 1000.01 1004.1 999.878L1002.02 999.42C1002.05 997.199 1004.13 994.561 1005.46 992.342C1065.21 978.511 1123.25 958.13 1178.52 931.568Z"/><path fill="#FEA600" d="M948.863 1143.9C955.519 1200.29 962.306 1266.82 977.158 1321.59C958.205 1296.45 941.372 1267.82 926.525 1240.08C920.975 1230.87 912.1 1211.93 906.685 1204.68L912.791 1186.12C918.797 1182.36 923.094 1177.95 928.411 1174.2C934.1 1170.18 933.528 1176.09 941.343 1168.62C941.54 1164.82 941.948 1160.07 941.684 1156.35L948.863 1143.9Z"/><path fill="#FEF12B" d="M941.343 1168.62C941.492 1176.2 929.861 1235.14 926.525 1240.08C920.975 1230.87 912.1 1211.93 906.685 1204.68L912.791 1186.12C918.797 1182.36 923.094 1177.95 928.411 1174.2C934.1 1170.18 933.528 1176.09 941.343 1168.62Z"/><path fill="#FEA600" d="M1189.05 1043.86L1191.13 1043.1L1191.73 1043.85C1174.26 1064.39 1150.29 1081.93 1129.67 1099.96C1106.99 1119.78 1091.08 1135.46 1071.17 1157.58C1076.63 1142.62 1080.09 1128.57 1084.04 1113.12C1087.69 1096.45 1091.95 1079.92 1096.83 1063.57C1106.63 1059.73 1126.47 1057.02 1137.5 1055.05C1155.82 1051.78 1171.04 1048.54 1189.05 1043.86Z"/><path fill="#FEF12B" d="M1189.05 1043.86L1191.13 1043.1L1191.73 1043.85C1174.26 1064.39 1150.29 1081.93 1129.67 1099.96C1106.99 1119.78 1091.08 1135.46 1071.17 1157.58C1076.63 1142.62 1080.09 1128.57 1084.04 1113.12C1114.48 1091.75 1144.58 1069.84 1176.9 1051.43C1181.03 1049.08 1185.26 1046.73 1189.05 1043.86Z"/><path fill="#FEF12B" d="M426.85 777.791C428.888 778.991 431.805 781.141 433.839 782.54C433.159 804.636 429.539 834.391 427.287 856.707C422.941 900.084 418.368 943.438 413.569 986.768C405.555 987.991 397.572 989.404 389.625 991.007C387.231 991.467 386.016 991.931 383.665 991.25C383.437 990.767 383.209 990.285 382.981 989.802C391.713 946.648 405.701 883.206 414.297 842.152C418.849 820.772 423.033 799.315 426.85 777.791Z"/><path fill="#FEF12B" d="M938.814 446.584C973.366 459.467 1002.79 470.096 1036.07 486.479C1033.74 496.262 1032.12 507.086 1030.44 517.081C1030.34 518.078 1029.89 519.415 1029.61 520.386C1027.4 520.626 950.25 492.56 939.917 489.253C939.938 475.253 939.035 460.753 938.814 446.584Z"/><path fill="#FEA600" d="M366.809 536.741C391.434 538.918 417.792 538.823 442.238 541.332C441.625 562.899 438.961 590.176 436.09 611.197C435.817 613.972 436.407 612.931 434.792 614.657C420.804 608.749 377.443 552.147 366.809 536.741Z"/><path fill="#FEF12B" d="M564.682 294.404C577.537 301.527 551.444 355.989 544.353 365.557C533.01 380.863 526.122 385.662 508.272 388.956C507.402 372.38 509.658 366.578 519.969 353.538C525.251 347.426 529.903 345.498 534.973 339.804L534.528 339.131C522.253 342.617 513.784 352.285 506.43 362.05L505.15 351.106C519.509 326.586 536.053 303.66 564.682 294.404Z"/><path fill="#FEF12B" d="M699.644 997.108C703.189 1000.66 715.425 1022.55 718.793 1028C730.015 1046.03 741.455 1063.93 753.111 1081.69C752.603 1108.07 749.305 1109.85 774.617 1118.35L778.137 1133.24C772.09 1141.83 765.961 1150.37 759.749 1158.84C759.514 1152.55 762.261 1138.43 754.878 1136.04C746.018 1133.16 737.47 1130.33 728.675 1126.6C731.465 1106.77 735.585 1093.67 735.606 1072.53C720.656 1052.42 703.911 1031.89 688.164 1012.32C691.898 1007.93 696.143 1001.84 699.644 997.108Z"/><path fill="#FEF12B" d="M540.429 95.5167C547.39 103.053 554.844 112.236 561.557 120.136C554.67 121.126 540.524 123.265 537.705 130.177C539.219 134.028 545.551 136.986 549.192 139.003C564.813 147.655 579.952 156.897 594.58 167.143C617.786 183.398 634.896 208.924 652.371 231.324C651.769 233.642 650.127 237.847 649.274 240.261C649.168 240.616 648.425 241.709 648.192 242.077C646.657 241.626 646.526 241.607 645.365 240.47C603.227 199.192 560.591 156.39 516.769 116.949C524.726 109.883 532.613 102.738 540.429 95.5167Z"/><path fill="#FEF12B" d="M1436.81 653.421C1448.92 657.699 1439.16 739.398 1436.44 752.449C1435.87 755.161 1429.46 768.482 1428 771.955C1427.39 762.917 1424.41 752.489 1422.04 743.678C1417.86 729.152 1412.96 714.27 1405.89 700.9C1399.79 699.289 1394.22 697.59 1388.19 695.686L1436.81 653.421Z"/><path fill="#FF18C5" d="M72.8432 688.677C76.7044 676.71 79.425 672.482 85.8153 661.854C88.6706 668.594 97.4999 676.183 103.387 680.761C137.622 707.384 170.884 739.509 206.047 764.679C204.182 766.222 202.207 768.378 200.481 770.134C195.417 767.731 190.866 765.111 186.168 762.08C148.45 737.751 109.444 714.641 72.8432 688.677Z"/><path fill="#FEF12B" d="M146.5 793.473C173.548 801.464 185.055 805.817 209.313 820.219C208.225 831.937 205.995 840.335 201.931 851.284C201.659 851.235 201.391 851.155 201.116 851.137C187.194 850.213 155.969 835.37 141.305 829.532C143.455 818.272 144.03 805.961 146.5 793.473Z"/><path fill="#FEF12B" d="M634.492 872.328C634.317 872.209 669.571 942.33 673.864 950.442C668.687 957.139 663.671 964.24 658.693 971.107L651.593 959.293C638.216 936.234 632.234 925.661 626.78 899.321C616.484 893.353 608.816 887.043 599.62 879.628C611.207 877.603 622.979 874.864 634.492 872.328Z"/><path fill="#FEF12B" d="M609.662 38.0207C617.776 34.3805 627.74 32.1195 636.466 30.075L656.239 111.963C657.627 117.793 663.532 141.151 663.496 145.104L662.565 143.86L661.033 145.059C667.513 156.027 668.742 165.697 671.37 178.07C664.43 163.2 657.568 148.294 650.787 133.351C636.359 101.89 622.647 70.1046 609.662 38.0207Z"/><path fill="#6C6403" d="M654.102 132.902C657.71 136.683 659.6 139.574 662.565 143.86L661.033 145.059C658.607 140.205 656.573 139.498 654.102 132.902Z"/><path fill="#FEF12B" d="M624.831 591.89C622.453 590.623 621.382 589.84 620.951 587.388C634.512 569.237 654.707 553.31 667.887 534.425C673.452 526.451 669.862 492.386 680.13 492.383C683.893 494.288 686.098 497.958 688.751 501.42L689.49 511.241C690.066 542.363 679.232 569.237 649.793 584.219C646.793 585.745 642.536 586.321 639.646 588.046C632.919 590.522 629.353 588.746 624.831 591.89Z"/><path fill="#4FF9F1" fill-opacity="0.98823529" d="M44.1599 812.518C71.1241 820.301 97.5757 829.324 124.148 838.356C141.427 844.229 166.834 850.52 182.719 857.872C174.728 859.964 165.87 862.079 158.083 864.638C139.336 857.697 54.8367 831.614 37.3291 834.408C38.8854 825.406 40.1893 820.771 44.1599 812.518Z"/><path fill="#FEA600" d="M1156.99 1005.77C1170.02 1004.49 1183.8 1003.89 1196.92 1003.12C1197.48 1012.77 1197.87 1025.43 1199.01 1034.81C1198.98 1034.87 1198.96 1034.93 1198.91 1034.98C1193.21 1040.82 1128.04 1050.99 1115.57 1052.96C1123.88 1046.88 1129.5 1041.41 1136.33 1033.99C1144.99 1024.19 1150.02 1016.82 1156.99 1005.77Z"/><path fill="#FEF12B" d="M1136.33 1033.99C1153.16 1033.67 1169.64 1033.33 1186.32 1031.14C1188.99 1030.79 1195.26 1029.73 1197.49 1030.52L1199.01 1034.81C1198.98 1034.87 1198.96 1034.93 1198.91 1034.98C1193.21 1040.82 1128.04 1050.99 1115.57 1052.96C1123.88 1046.88 1129.5 1041.41 1136.33 1033.99Z"/><path fill="#401AFE" d="M227.906 633.085C237.729 630.265 244.74 627.116 255.464 624.577C259.876 644.182 265.314 687.656 266.237 708.071L260.042 712.764L249.321 722.198C242.906 692.317 234.334 663.265 227.906 633.085Z"/><path fill="#FF18C5" d="M255.464 624.577C259.876 644.182 265.314 687.656 266.237 708.071L260.042 712.764C258.651 698.594 257.546 683.977 256.362 669.755C255.225 656.114 251.645 637.419 255.464 624.577Z"/><path fill="#FEF12B" d="M422.559 219.51C425.146 219.254 430.45 219.359 433.253 219.325C429.94 229.678 427.618 238.947 425.784 249.615C423.432 263.301 453.345 263.969 451.682 274.555C448.065 278.372 435.053 282.363 429.321 284.324L418.551 287.194C410.751 278.781 400.338 267.827 394.332 258.073C387.431 246.864 403.313 231.431 410.274 221.752C414.299 220.716 418.45 220.152 422.559 219.51Z"/><path fill="#FEF12B" d="M144.677 877.896C157.878 877.852 189.004 869.833 200.568 864.66C202.568 866.369 204.44 868.223 206.167 870.207C230.034 897.336 181.484 898.745 173.31 905.994C172.304 908.959 172.344 907.678 173.766 911.049L172.964 914.481L152.021 914.9C146.769 902.25 143.997 891.505 144.677 877.896Z"/><path fill="#FEF12B" d="M830.015 184.715C833.214 186.438 838.178 203.083 839.729 207.54C811.892 218.239 784.076 229.637 756.228 240.352C751.743 242.078 744.458 239.739 739.82 241.817C737.634 242.796 737.553 245.019 736.644 247.71C731.549 251.082 714.332 257.243 707.906 259.702C704.436 261.316 704.019 261.795 700.435 261.233L700.298 259.953C705.723 254.818 730.429 241.085 738.28 236.554C768.717 219.026 799.297 201.746 830.015 184.715Z"/><path fill="#FEF12B" d="M460.639 751.894C485.848 753.06 525.947 782.574 531.04 807.8C509.927 800.41 489.764 796.602 467.952 791.742C464.164 777.535 460.645 766.774 460.639 751.894Z"/><path fill="#FEF12B" d="M444.325 220.261C445.988 220.188 447.652 220.165 449.317 220.191C462.4 220.334 469.351 224.787 478.193 233.851C468.181 255.603 487.567 248.351 492.142 258.609C492.464 262.832 490.537 269.055 485.929 270.024C463.896 272.39 451.433 262.593 433.341 250.55C435.032 241.806 436.41 224.659 444.325 220.261Z"/><path fill="#FEF12B" d="M502.33 831.331L504.509 832.345C506.155 835.052 503.979 867.878 503.744 874.454C502.288 913.19 501.271 951.942 500.695 990.701L488.243 986.232C484.656 985.043 483.608 984.953 480.819 982.581C480.577 978.436 483.379 961.093 484.177 955.788L492.79 898.933C495.085 883.016 498.882 844.938 502.33 831.331Z"/><path fill="#FEF12B" d="M552.671 682.987C560.524 683.168 565.028 683.801 572.682 684.951C573.061 696.979 573.876 702.813 576.819 714.252C558.645 709.208 550.78 708.884 535.619 720.523C530.891 725.094 529.56 726.984 525.774 732.452C521.803 718.961 519.749 711.382 518.422 697.33C529.965 686.614 536.948 684.012 552.671 682.987Z"/><path fill="#FEF12B" d="M354.85 270.185C366.5 273.201 369.331 278.199 373.71 288.512C360.912 299.069 344.222 311.144 327.18 309.889C316.09 304.374 311.436 295.655 306.625 284.838C323.728 283.093 339.535 277.8 354.85 270.185Z"/><path fill="#FEF12B" d="M155.278 754.462C175.323 766.743 191.358 776.516 210.485 790.182C210.716 794.875 211.869 807.727 209.524 811.06L207.587 810.216C187.68 796.935 170.821 791.544 148.105 785.121C150.738 775.249 152.999 764.487 155.278 754.462Z"/><path fill="#FEF12B" d="M774.716 395.285C780.251 396.314 794.679 403.252 800.33 405.857C782.181 420.797 782.431 435.308 779.752 456.399C779.607 456.85 779.461 457.3 779.316 457.751C769.265 448.308 765.023 445.76 752.243 440.413C754.058 419.499 759.143 409.265 774.716 395.285Z"/><path fill="#FEF12B" d="M206.187 696.93C215.19 700.755 232.691 722.724 239.282 731.229C232.256 737.447 225.136 744.922 218.472 751.65L217.306 752.115C208.215 746.012 195.681 735.658 186.744 728.727C193.068 718.088 199.366 707.241 206.187 696.93Z"/><path fill="#0891FF" d="M373.272 306.017C377.689 303.206 384.834 297.96 389.603 296.886C392.019 297.673 391.168 296.928 392.302 299.115C389.065 302.908 371.378 314.63 366.117 318.805C353.908 328.492 341.74 338.49 329.602 348.378C326.561 350.855 318.677 358.135 314.984 358.817C314.685 358.824 314.386 358.83 314.086 358.837C290.597 343.442 317.749 328.887 329.641 319.716C348.803 318.074 355.981 314.116 373.272 306.017Z"/><path fill="#FF18C5" d="M373.272 306.017C377.689 303.206 384.834 297.96 389.603 296.886C392.019 297.673 391.168 296.928 392.302 299.115C389.065 302.908 371.378 314.63 366.117 318.805C353.908 328.492 341.74 338.49 329.602 348.378C326.561 350.855 318.677 358.135 314.984 358.817C314.685 358.824 314.386 358.83 314.086 358.837C313.941 357.229 313.994 355.935 314.009 354.331C319.894 343.313 361.156 315.711 373.272 306.017Z"/><path fill="#1B1A1A" d="M586.451 218.495C589.179 218.101 591.239 219.399 593.467 220.95C596.334 222.943 598.193 226.083 598.562 229.555C600.582 247.744 570.247 249.71 558.38 250.623C534.155 253.491 542.997 237.044 551.465 224.172C563.172 222.57 574.838 220.677 586.451 218.495Z"/><path fill="#FEF12B" d="M890.065 383.41C891.278 384.666 895.112 390.538 896.321 392.309C895.527 419.989 894.59 447.664 893.509 475.334L882.638 472.239L872.321 469.361C877.064 441.983 883.216 410.175 890.065 383.41Z"/><path d="M928.628 1008.24C945.067 1010.8 940.938 1029.56 931.885 1038.41C916.07 1040.67 919.846 1015.91 928.628 1008.24Z"/><path fill="#FEF12B" d="M929.63 1014.43C936.694 1018.53 933.05 1026.71 930.147 1032.47C923.703 1029.5 927.532 1019.36 929.63 1014.43Z"/><path fill="#FEF12B" d="M241.433 739.044C244.051 742.159 244.298 752.2 246.903 757.751C250.858 766.179 256.518 769.16 264.531 772.494C257.809 779.244 252.921 784.164 246.941 791.556L241.848 788.45C234.032 782.801 221.31 776.345 212.461 771.155C222.568 759.377 230.731 750.301 241.433 739.044Z"/><path fill="#FEA600" d="M767.046 571.187C791.734 569.534 810.005 601.182 804.401 623.139C802.068 632.279 799.722 636.549 794.025 643.958C790.382 645.758 788.013 646.936 785.858 643.044C786.227 637.545 790.032 631.859 791.872 625.58C796.053 611.309 791.844 598.477 780.262 589.192C775.833 585.641 766.892 581.76 764.701 577.645C764.818 573.53 764.445 575.148 767.046 571.187Z"/><path fill="#FEF12B" d="M1389.71 649.413C1398.79 650.003 1408.2 650.939 1417.29 651.737C1402.99 662.475 1389.32 673.832 1375.48 685.163C1367.98 692.24 1358.96 686.32 1350.04 683.007C1362.8 672.097 1376.7 659.774 1389.71 649.413Z"/><path fill="#FEA600" d="M635.988 670.008L638.835 670.737C641.356 676.807 633.873 695.22 642.475 713.248C652.068 733.353 663.375 727.062 667.421 735.952C665.89 739.323 666.312 738.296 662.662 740.65C653.359 740.671 647.339 739.297 640.618 732.684C625.422 717.73 620.529 686.025 635.988 670.008Z"/><path fill="#FEF12B" d="M705.504 69.0184C714.269 72.858 720.685 76.2094 729.112 80.7925C720.217 92.5055 708.064 119.713 702.107 133.239L693.728 151.509C698.179 123.235 701.983 97.4855 705.504 69.0184Z"/><path fill="#FEF12B" d="M1188.09 927.528C1191.03 930.492 1194.91 981.25 1195.49 989.234C1187.62 990.18 1178.43 990.769 1170.44 991.466C1167.81 991.896 1167.66 992.1 1165.04 991.321C1166.29 988.089 1167.65 984.953 1169.14 981.825C1177.46 964.328 1183.16 946.231 1188.09 927.528Z"/><path fill="#FEF12B" d="M552.992 853.069C557.807 858.19 580.503 909.485 587.336 921.293C582.923 925.498 581.706 926.978 578.117 931.929C575.703 935.806 572.37 939.955 569.55 943.647C565.049 913.277 559.527 883.067 552.992 853.069Z"/><path fill="#FDFDFD" d="M1004.42 517.87C1012.8 523.23 1022.4 564.984 1023.44 576.538C1030.56 583.85 1051.98 599.069 1061.4 605.48C1101.96 633.067 1167.67 701.972 1175.42 751.488C1175.09 751.192 1165.04 727.216 1162.92 723.334C1151.31 702.083 1137.15 682.327 1121.32 664.142C1105.91 646.641 1088.9 630.619 1070.51 616.285C1058.01 606.506 1029.08 588.279 1021.19 577.61C1018.53 555.513 1009.72 538.077 1004.42 517.87Z"/><path fill="#1B1A1A" d="M298.995 341.744L299.821 342.587C301.456 354.395 302.167 357.285 313.325 362.076C304.51 368.273 295.239 376.888 285.976 383.691C282.153 384.02 279.43 384.844 276.328 382.838C262.829 365.757 286.852 350.849 298.995 341.744Z"/><path fill="#4FF9F1" fill-opacity="0.98823529" d="M85.8153 661.854L87.7374 661.431C97.8439 668.181 206.48 757.726 207.667 762.412L206.047 764.679C170.884 739.509 137.622 707.384 103.387 680.761C97.4999 676.183 88.6706 668.594 85.8153 661.854Z"/><path fill="#FEA600" d="M947.524 1001.99C954.113 1004.11 961.477 1005.08 968.347 1006.22C968.291 1014.8 967.916 1027.76 966.856 1036.29C966.01 1045.39 964.693 1056.2 962.515 1065.03C959.957 1058.23 943.505 1008.11 944.211 1003.43L947.524 1001.99Z"/><path fill="#FEF12B" d="M962.515 1065.03C959.957 1058.23 943.505 1008.11 944.211 1003.43L947.524 1001.99L947.915 1002.97C951.26 1011.49 953.746 1030.89 960.528 1036.05C961.371 1036.69 965.478 1036.37 966.856 1036.29C966.01 1045.39 964.693 1056.2 962.515 1065.03Z"/><path fill="#401AFE" d="M37.3291 834.408C54.8367 831.614 139.336 857.697 158.083 864.638L149.374 867.41C112.575 856.954 74.9259 848.665 38.1178 838.907C37.3477 838.703 37.3921 835.246 37.3291 834.408Z"/><path fill="#FEA600" d="M736.105 530.774L738.699 531.516C743.122 536.306 739.446 550.072 740.635 558.609C742.299 570.561 746.771 583.373 758.969 588.515C763.107 590.26 768.005 590.182 771.256 592.944C770.213 595.337 769.973 594.727 766.641 596.122C764.39 596.216 758.695 596.622 756.76 596.137C726.997 588.674 723.104 553.468 736.105 530.774Z"/><path fill="#FEF12B" d="M757.447 250.923C770.505 252.513 798.223 255.213 809.908 257.945C800.047 259.423 793.971 260.702 784.552 263.53C770.575 268.456 760.869 272.843 747.632 279.511C747.393 271.882 746.66 263.198 746.165 255.508L757.447 250.923Z"/><path fill="#06FEA5" fill-opacity="0.98823529" d="M491.136 231.492C508.314 229.817 525.547 227.335 542.769 225.548C538.602 232.514 538.075 234.982 536.613 242.773C518.289 244.871 506.864 243.868 487.813 247.549C486.461 241.042 488.561 237.477 491.136 231.492Z"/><path fill="#FEA600" d="M688.895 789.052C693.943 789.827 700.358 789.402 703.805 791.915C706.969 801.569 688.842 804.21 681.794 800.46C664.136 791.067 661.868 764.611 669.808 748.19C671.264 745.178 672.096 743.737 675.158 742.693L676.353 744.047C674.857 749.868 673.076 760.421 674.438 766.271C676.022 776.872 680.541 782.934 688.895 789.052Z"/><path fill="#1B1A1A" d="M238.174 586.135C241.975 585.689 242.892 585.548 246.652 586.085C249.721 589.047 253.146 610.837 254.244 616.576C248.437 616.867 245.715 617.184 240 618.251C235.479 619.533 231.026 621.575 226.685 623.412C226.567 614.427 224.812 600.615 228.576 592.651C230.592 588.386 233.975 587.618 238.174 586.135Z"/><path fill="#FEF12B" d="M601.931 820.599L613.009 819.671C614.884 824.412 616.679 829.423 618.476 834.216L566.047 833.775C562.965 833.748 559.884 833.683 556.804 833.581C553.913 830.498 551.316 826.969 548.73 823.61C566.486 823.061 584.226 822.057 601.931 820.599Z"/><path fill="#1B1A1A" d="M65.0077 642.241C67.2385 643.262 80.1692 654.818 83.2075 657.194C75.595 665.111 71.1897 673.888 66.9621 683.85C63.5574 681.859 60.8464 678.804 57.8877 676.294C41.837 662.681 54.3151 653.135 65.0077 642.241Z"/><path fill="#FEF12B" d="M822.369 1165.34L825.137 1166.63C822.387 1177.2 818.882 1189.39 816.541 1199.91C811.428 1214.86 807.683 1230.07 803.932 1245.4L787.571 1238.71C790.967 1231.75 805.746 1200.26 809.619 1196.23L815.064 1196.68C815.607 1190.86 820.824 1171.47 822.369 1165.34Z"/><path fill="#FDFDFD" d="M753.266 610.622C758.95 604.594 762.947 600.334 769.317 594.953C765.769 601.405 761.993 607.729 757.996 613.913L758.34 614.721C761.178 612.295 763.9 609.929 766.87 607.657C765.047 610.715 763.208 613.878 761.348 616.904L772.088 623.813C767.636 622.706 760.817 620.239 756.869 622.146L755.12 619.573C748.7 622.126 713.816 668.372 707.959 676.685C716.017 658.791 731.79 635.06 744.989 620.336C740.243 620.448 733.992 621.087 729.849 619.18L728.216 617.488C729.992 610.577 743.436 612.396 748.697 613.815C750.097 614.187 751.489 614.586 752.873 615.012C750.528 612.134 748.386 610.155 747.62 606.61C750.002 606.862 751.425 608.83 753.266 610.622Z"/><path fill="#FEF12B" d="M398.134 227.584C399.828 230.813 384.02 241.257 385.749 250.47C387.7 260.866 411.117 283.701 411.302 288.351L408.423 289.308C396.703 290.451 393.487 290.808 388.709 279.022C377.242 250.742 370.078 244.551 398.134 227.584Z"/><path fill="#FEA600" d="M799.607 486.737C815.199 484.985 836.17 500.207 817.533 511.387C814.509 511.677 811.464 511.664 808.442 511.348C793.213 509.621 784.011 497.243 799.607 486.737Z"/><path fill="#FEF12B" d="M803.079 493.884C807.783 494.899 816.05 496.856 815.891 502.645L813.308 504.181C807.747 503.228 802.218 503.067 798.876 498.673C799.85 495.429 799.682 496.38 803.079 493.884Z"/><path fill="#FEA600" d="M711.923 457.069C726.974 455.966 751.344 470.23 728.132 480.114C708.927 480.732 688.26 463.681 711.923 457.069Z"/><path fill="#FEF12B" d="M710.02 465.626C715.283 464.837 727.835 465.125 728.544 471.815C722.733 472.976 712.421 471.954 710.02 465.626Z"/><path fill="#FEA600" d="M709.218 810.093C710.611 810.678 712.791 811.235 712.602 813.163C711.144 827.975 711.325 844.985 724.95 854.408C729.93 857.851 735.026 856.309 740.724 858.252C740.624 860.891 739.168 861.567 736.993 863.961C709.581 872.003 692.678 831.835 709.218 810.093Z"/><path fill="#FEF12B" d="M791.444 1183.15C793.503 1187.15 794.617 1187.86 797.955 1190.65C794.249 1197.27 777.456 1228.18 773.795 1231.91L771.305 1231.49L761.412 1226.56C771.595 1212.21 781.607 1197.74 791.444 1183.15Z"/><path fill="#FDFDFD" d="M980.41 676.174C987.488 660.666 994.201 645.629 999.758 629.439C1001.12 625.483 1003.5 611.807 1005.05 610.411C1016.62 618.901 992.71 672.987 987.013 684.359L980.41 676.174Z"/><path fill="#FEA600" d="M884.588 747.639C901.365 747.123 909.665 765.763 893.659 774.074C874.254 773.511 867.321 759.386 884.588 747.639Z"/><path fill="#FEF12B" d="M886.833 754.751C890.838 755.129 893.799 758.561 894.21 762.495C892.923 766.001 893.666 764.779 890.062 767.152C888.819 766.61 887.589 766.038 886.374 765.435C882.988 763.719 882.116 762.711 881.056 759.541C882.747 756.101 882.986 756.788 886.833 754.751Z"/><path fill="#FEA600" d="M795.207 817.876C802.027 820.022 805.846 823.994 808.631 830.367C818.042 851.898 805.522 858.507 789.302 865.407C786.265 863.899 785.55 863.626 782.988 861.492C781.944 854.315 798.675 853.814 801.246 846.645C805.297 835.352 791.107 828.153 795.207 817.876Z"/><path fill="#1B1A1A" d="M17.6369 807.603C22.1195 807.885 31.3016 809.59 36.086 810.325C34.2575 815.533 32.7035 820.833 31.4303 826.204C30.5794 829.897 30.9502 835.167 29.4562 837.13C12.4249 830.953 0.106331 823.472 17.6369 807.603Z"/><path fill="#FEF12B" d="M519.602 850.366C525.757 854.501 529.283 856.737 536.248 859.121C529.744 870.335 525.402 880.79 520.531 892.728L514.529 906.434C514.644 889.675 517.436 866.823 519.602 850.366Z"/><path fill="#FDFDFD" d="M272.554 775.432C272.773 778.676 261.12 799.773 260.619 810.018C259.948 823.715 258.491 831.942 270.957 842.841C274.231 845.703 277.318 847.584 279.825 850.858C280.042 854.173 279.928 853.174 277.601 856.618C274.97 855.697 272.291 854.514 270.171 852.696C244.359 830.563 255.735 797.77 272.554 775.432Z"/><path fill="#FEF12B" d="M564.158 125.661C564.293 125.65 564.431 125.601 564.564 125.628C569.464 126.596 591.417 155.549 595.955 161.023L584.219 153.344C571.402 145.29 558.406 137.524 545.242 130.052C552.396 127.986 556.829 126.919 564.158 125.661Z"/><path fill="#FDFDFD" d="M630.281 849.657C632.838 850.194 649.046 858.531 655.367 860.66C683.923 870.28 717.498 877.539 747.701 878.626C750.176 880.419 749.414 879.44 750.178 883.023C709.314 881.043 664.969 872.526 630.281 849.657Z"/><path fill="#FEF12B" d="M711.154 390.901L711.947 391.015C713.46 392.751 707.578 400.368 705.757 405.376C701.4 417.356 701.65 424.498 701.595 436.873L697.568 438.394C690.95 421.353 690.863 413.329 697.72 396.512C701.939 395.09 706.993 392.722 711.154 390.901Z"/><path fill="#FDFDFD" d="M430.75 286.275C442.86 286.408 507.3 295.121 515.218 300.521C511.605 302.428 494.168 299.1 489.415 298.347C472.592 295.659 454.731 292.122 437.77 290.776C425.936 289.837 414.443 297.127 404.406 302.755C414.628 292.802 418.469 292.885 430.75 286.275Z"/><path fill="#FEF12B" d="M525.065 822.58C532.259 823.86 530.332 847.612 537.228 853.979C533.763 854.351 533.223 853.401 529.723 851.752C524.814 848.162 523.359 847.036 517.44 845.663L516.178 845.382C513.103 842.285 513.89 833.789 513.776 828.662C517.342 826.617 521.408 824.545 525.065 822.58Z"/><path fill="#FEF12B" d="M549.287 668.114C555.923 667.893 570.18 668.108 573.161 674.766C571.472 677.735 563.445 676.402 560.118 676.192C550.145 675.56 543.45 676.465 534.016 679.512C527.45 682.138 523.646 685.265 518.374 689.82L520.495 678.3C531.168 672.093 537.151 669.443 549.287 668.114Z"/><path fill="#FEF12B" d="M1434.12 769.137C1441.25 772.145 1448.92 784.075 1453.2 790.476L1451.17 806.711C1443.74 800.78 1435.54 788.806 1430.89 780.692L1434.12 769.137Z"/><path fill="#FEF12B" d="M838.853 1108.95C844.216 1106.93 858.477 1100.73 863.294 1103.66C860.629 1109.21 849.661 1111.82 844.133 1113.63C838.907 1126.83 827.975 1153.61 825.137 1166.63L822.369 1165.34C826.891 1146.47 835.209 1126.66 838.853 1108.95Z"/><path fill="#FEF12B" d="M761.491 390.708C764.149 391.08 764.555 391.006 766.783 392.632C751.865 407.817 746.463 417.062 745.378 438.799C742.793 438.17 741.053 438.093 739.335 436.13C733.354 421.191 749.389 399.14 761.491 390.708Z"/><path fill="#FEF12B" d="M322.443 814.875C326.05 816.537 330.85 819.622 334.362 821.746C334.646 831.621 334.482 840.922 333.347 850.739L320.111 841.096L322.443 814.875Z"/><path fill="#4FF9F1" d="M994.06 845.41L1001.58 842.032C1009.59 850.989 1017.77 861.539 1025.05 871.186C1022.83 870.147 1011.84 865.261 1010.19 864.218C1002.28 860.784 994.61 856.332 987.24 851.871L994.06 845.41Z"/><path fill="#FDFDFD" d="M987.24 851.871L994.06 845.41C993.275 855.733 1006.84 855.831 1010.19 864.218C1002.28 860.784 994.61 856.332 987.24 851.871Z"/><path fill="#401AFE" d="M536.613 242.773C537.444 245.833 538.148 248.696 539.288 251.662C530.942 251.711 495.327 252.799 489.767 250.124L487.813 247.549C506.864 243.868 518.289 244.871 536.613 242.773Z"/><path fill="#FEA600" d="M738.2 839.57C750.089 839.274 766.286 849.592 766.322 863.161C766.327 865.15 763.022 866.56 761.353 867.612L760.23 867.288C758.434 863.644 754.691 855.96 752.078 853.083C748.304 848.924 737.006 848.97 733.973 844.796C734.983 841.407 734.944 842.295 738.2 839.57Z"/><path fill="#FEF12B" d="M777.42 871.129L779.185 871.039C781.792 873.221 783.702 877.435 785.424 880.555C777.902 883.262 768.554 887.445 761.022 890.588C758.234 891.871 759.123 891.935 756.47 891.582C752.852 880.899 770.031 873.697 777.42 871.129Z"/><path fill="#FEF12B" d="M1042.66 489.751L1051.94 494.347C1049.16 504.141 1046.77 516.345 1045.11 526.363C1042.37 526.684 1039.4 525.095 1036.73 524.021C1038.52 512.626 1040.19 500.998 1042.66 489.751Z"/><path fill="#FEF12B" d="M677.712 959.017C679.896 960.743 683.617 968.2 685.202 971.083C680.29 976.494 675.24 982.744 670.496 988.373C668.221 986.886 665.403 981.725 663.795 979.17L677.712 959.017Z"/><path fill="#FDFDFD" d="M639.646 588.046C647.241 590.945 655.763 593.539 661.292 599.591L661.492 601.241C653.691 605.828 632.61 595.859 624.831 591.89C629.353 588.746 632.919 590.522 639.646 588.046Z"/><path fill="#4FF9F1" d="M1046.24 826.546C1047.34 826.672 1047.01 826.697 1048.06 827.466C1047.87 833.593 1035.01 860.391 1031.66 868.196L1031.5 869.001L1031.09 868.685C1031.61 857.241 1034.45 841.398 1036.21 829.733L1046.24 826.546Z"/><path fill="#FEF12B" d="M384.724 313.523C388.628 314.849 391.002 318.94 393.437 322.288L388.549 329.367L372.777 331.772C369.787 332.342 366.95 332.784 363.946 333.238L363.587 332.568C370.399 326.058 377.663 319.778 384.724 313.523Z"/><path fill="#FEF12B" d="M943.98 1105.9C949.548 1113.18 943.423 1141.07 936.326 1143.65L930.928 1138.21L943.98 1105.9Z"/><path fill="#FEF12B" d="M312.671 876.336C316.478 876.8 322.046 878.239 325.92 879.131C322.356 885.902 319.564 889.511 314.579 895.232C312.507 895.327 304.782 893.581 302.275 893.073C306.858 886.615 308.999 883.49 312.671 876.336Z"/><path fill="#4FF9F1" d="M1015.86 836.804L1017.52 836.793C1019.95 839.314 1025.87 861.059 1025.59 864.899L1024.51 864.94L1021.34 860.963C1015.96 854.23 1010.54 847.531 1005.07 840.865L1015.86 836.804Z"/><path fill="#FDFDFD" d="M879.392 943.337C881.334 944.522 894.596 958.349 897.579 961.205C907.507 970.709 916.703 979.307 927.953 987.403C921.537 985.959 908.06 976.098 902.278 971.119C895.704 965.46 884.406 955.525 879.772 947.744C879.62 945.983 879.494 944.515 879.392 943.337Z"/><path fill="#4FF9F1" d="M1031.89 831.213L1032.97 831.384C1034.14 833.706 1029.36 859.296 1027.81 861.275L1027.08 859.773L1020.19 835.286L1031.89 831.213Z"/><path fill="#FEF12B" d="M523.666 172.59C531.1 172.77 553.906 178.237 562.375 180.116C567.185 185.254 570.62 188.47 575.933 193.105C571.879 191.868 563.209 187.962 558.83 186.273C547.15 181.771 535.229 177.334 523.666 172.59Z"/><path fill="#FEF12B" d="M479.246 805.164C482.166 805.741 511.093 813.9 513.279 814.823L510.444 816.696L500.24 822.596C493.738 816.578 486.18 810.75 479.246 805.164Z"/><path fill="#FEF12B" d="M566.538 626.998C572.551 628.347 579.155 628.188 579.354 636.096C576.338 640.148 574.685 639.162 570.407 638.291C565.044 637.25 560.164 637.102 554.723 636.793L566.538 626.998Z"/><path fill="#FEA600" d="M498.383 313.146C505.771 314.021 512.173 315.242 519.444 316.632L512.882 324.575C511.698 326.178 511.543 326.208 510.106 327.593C503.969 328.118 499.192 318.581 498.383 313.146Z"/><path fill="#FDFDFD" d="M805.952 876.619C817.579 875.437 825.307 873.766 836.583 870.609C838.377 874.6 843.107 883.331 841.386 887.38C838.357 886.04 836.875 882.046 835.761 879.125C835.138 877.478 834.534 875.824 833.949 874.164C823.595 878.204 819.448 879.004 808.335 878.592L805.952 876.619Z"/><path fill="#FDFDFD" d="M277.46 759.992C281.026 757.018 279.433 757.626 283.55 757.045C292.641 760.983 290.567 776.902 290.075 785.283C288.437 779.442 283.963 765.839 278.808 762.534C277.577 761.42 278.104 761.887 277.46 759.992Z"/><path fill="#FDFDFD" d="M1019.12 786.713C1020.72 789.299 1023.99 794.862 1025.7 796.986C1037.56 800 1043.95 799.842 1052.2 809.357C1041.7 804.805 1035.36 803.304 1024.09 801.075C1021.88 797.819 1019.54 794.098 1016.94 791.206L1019.12 786.713Z"/><path fill="#FDFDFD" d="M688.751 501.42C696.47 509.76 706.114 524.948 711.247 535.221C703.544 527.648 696.28 519.642 689.49 511.241L688.751 501.42Z"/><path fill="#FEF12B" d="M1439.36 758.272C1444.33 761.499 1457.81 775.928 1454.11 782.15C1448.46 774.49 1442.81 770.431 1437.53 763.202C1436.93 762.374 1438.69 759.629 1439.36 758.272Z"/><path fill="#FEF12B" d="M684.794 401.174L685.69 401.598C684.957 407.239 684.567 413.169 684.105 418.862L683.515 419.254L680.376 416.346L671.824 407.535L684.794 401.174Z"/><path fill="#FEF12B" d="M512.021 275.323C518.365 279.552 519.466 290.531 517.839 297.401L509.838 293.29C510.787 287.537 511.368 281.162 512.021 275.323Z"/><path fill="#FDFDFD" d="M1004.15 820.99C1005.05 821.463 1004.78 821.534 1005.42 822.807C1005.06 827.334 1004.87 832.803 1001.99 836.365L999.946 835.42C997.659 832.444 995.086 829.426 992.689 826.517L1004.15 820.99Z"/><path fill="#FDFDFD" d="M1094.63 798.496L1094.86 799.665C1093.84 804.153 1055.89 840.016 1049.88 845.985C1051.31 839.761 1087.33 808.072 1094.63 798.496Z"/><path fill="#4FF9F1" d="M1035.27 809.939L1036.31 811.235C1036.62 814.716 1038.02 823.231 1034.14 824.417L1031.34 821.613L1024.22 813.651L1035.27 809.939Z"/><path fill="#FEF12B" d="M965.094 1143.84C966.285 1144.01 967.793 1144.38 969.001 1144.64L970.159 1146.44C969.709 1151.32 965.796 1154.09 962.177 1157.28L958.944 1157.23C955.233 1152.92 961.98 1146.86 965.094 1143.84Z"/><path fill="#FEF12B" d="M922.562 1143.53C932.058 1145.1 934.075 1149.75 928.837 1157.61L927.545 1158.91L925.91 1158.65C922.783 1154.31 922.631 1148.72 922.562 1143.53Z"/><path fill="#FDFDFD" d="M1091.86 808.761C1092.03 813.477 1067.75 843.254 1062.78 850.811C1062.6 844.031 1087.11 814.48 1091.86 808.761Z"/><path fill="#4FF9F1" d="M1018.92 815.42L1019.97 816.39C1019.96 820.102 1020.55 826.637 1017.55 828.987L1015.44 827.348L1007.67 819.788L1018.92 815.42Z"/><path fill="#4FF9F1" d="M1022.82 816.779C1025.48 818.536 1031.65 824.05 1032.78 826.943L1031.56 827.817C1028.39 828.901 1024.39 829.995 1021.12 830.977L1022.82 816.779Z"/><path fill="#FEF12B" d="M989.738 982.024C994.016 982.224 994.836 982.091 997.169 985.767C997.417 989.52 996.762 990.371 995.296 993.994C991.649 994.289 990.859 993.739 988.722 991.006C988.005 987.265 988.752 985.697 989.738 982.024Z"/><path fill="#FEF12B" d="M903.94 731.438C902.674 727.311 896.66 712.94 896.722 711.46C899.689 709.168 906.44 708.537 908.855 710.938C905.89 711.754 903.147 712.517 900.215 713.474C903.241 720.516 904.335 724.357 905.972 731.922L903.94 731.438Z"/><path fill="#FDFDFD" d="M992.225 829.925C994.72 832.374 997.536 834.441 998.182 837.664C996.649 840.592 995.796 840.242 992.299 841.897C989.552 843.735 990.943 843.451 988.168 843.547C987.844 839.999 990.819 833.571 992.225 829.925Z"/><path fill="#4FF9F1" d="M1039.02 813.194C1041.99 815.86 1047.64 820.441 1048.07 824.215C1044.79 824.889 1041.77 826.053 1038.97 824.69C1037.34 821.712 1038.56 816.904 1039.02 813.194Z"/><path fill="#FDFDFD" d="M870.108 809.463L871.997 810.854C867.124 816.213 850.688 831.44 844.682 834.356L844.514 833.892C853.562 825.91 861.564 817.944 870.108 809.463Z"/><path fill="#FDFDFD" d="M755.12 619.573L756.869 622.146C755.245 626.565 737.189 650.057 733.817 651.729C738.338 645.615 753.384 626.21 755.12 619.573Z"/><path fill="#FEF12B" d="M684.04 425.207C686.015 428.077 687.712 435.98 688.581 439.641L687.056 441.465L683.199 442.472L682.034 441.451C681.205 437.298 683.216 429.923 684.04 425.207Z"/><path fill="#FEF12B" d="M587.904 608.308C587.535 611.35 584.722 619.047 582.041 620.925C579.993 622.359 578.904 621.54 575.935 621.098L575.189 620.566C575.923 618.333 585.492 610.443 587.904 608.308Z"/><path fill="#4FF9F1" d="M1009.17 825.09C1012.04 827.672 1014.79 829.312 1015.6 832.59L1013.04 834.155C1010.79 834.995 1010.25 835.365 1007.81 835.156C1006.55 832.373 1008.25 828.763 1009.17 825.09Z"/><path fill="#FDFDFD" d="M509.252 419.087C512.429 420.379 514.891 421.424 516 424.727L514.358 426.267C512.394 427.671 512.335 427.881 509.927 428.505C508.302 426.148 509.127 422.583 509.252 419.087Z"/><path fill="#FEF12B" d="M294.671 902.941C297.844 902.744 299.315 902.757 302.484 903.015L302.354 903.893L297.714 906.476C294.645 907.879 294.323 908.055 291.037 908.597C290.886 906.679 293.093 904.843 294.671 902.941Z"/><path fill="#FEF12B" d="M173.766 911.049C178.23 912.477 180.821 911.283 184.677 912.928L184.534 913.111L182.251 912.699L182.45 913.608C178.671 914.263 176.738 914.342 172.964 914.481L173.766 911.049Z"/><path fill="#FDFDFD" d="M267.46 770.317C270.934 766.906 274.299 763.703 277.46 759.992C278.104 761.887 277.577 761.42 278.808 762.534C276.348 764.979 270.601 768.338 267.46 770.317Z"/><path fill="#7E7E81" d="M808.335 878.592C803.842 878.728 799.49 879.06 795.069 878.282C798.322 877.071 802.415 876.947 805.952 876.619L808.335 878.592Z"/><path fill="#988A2A" d="M903.94 731.438L905.972 731.922C906.452 734.445 906.686 734.898 905.947 737.422C904.126 735.31 904.555 734.664 903.94 731.438Z"/></svg>